<svg width="26" height="26" viewBox="0 0 26 26" fill="none" xmlns="http://www.w3.org/2000/svg">
<g clip-path="url(#clip0_3_1072)">
<path d="M7.86586 19.0385C6.54903 19.0385 5.28614 18.5382 4.355 17.6475C3.42386 16.7568 2.90076 15.5489 2.90076 14.2893C2.90076 13.0297 3.42386 11.8217 4.355 10.9311C5.28614 10.0404 6.54903 9.54006 7.86586 9.54006C8.17687 8.15452 9.08669 6.93693 10.3952 6.15514C11.0431 5.76803 11.7694 5.49957 12.5325 5.36507C13.2957 5.23058 14.0809 5.23269 14.8431 5.37129C15.6054 5.50988 16.3299 5.78225 16.9752 6.17283C17.6205 6.56341 18.174 7.06457 18.6041 7.64767C19.0343 8.23078 19.3326 8.88443 19.482 9.57129C19.6314 10.2582 19.6291 10.9648 19.4751 11.6508H20.5305C21.5101 11.6508 22.4497 12.04 23.1424 12.7327C23.8352 13.4255 24.2243 14.365 24.2243 15.3447C24.2243 16.3243 23.8352 17.2639 23.1424 17.9566C22.4497 18.6493 21.5101 19.0385 20.5305 19.0385H19.4751" stroke="#2353FC" stroke-width="2.11077" stroke-linecap="round" stroke-linejoin="round"/>
<path d="M9.97888 15.8733L13.145 12.7072L16.3112 15.8733" stroke="#2353FC" stroke-width="2.11077" stroke-linecap="round" stroke-linejoin="round"/>
<path d="M13.1429 12.7072V22.2056" stroke="#2353FC" stroke-width="2.11077" stroke-linecap="round" stroke-linejoin="round"/>
</g>
<defs>
<clipPath id="clip0_3_1072">
<rect width="25.3292" height="25.3292" fill="white" transform="translate(0.478882 0.0430908)"/>
</clipPath>
</defs>
</svg>
