<svg width="63" height="56" viewBox="0 0 63 56" fill="none" xmlns="http://www.w3.org/2000/svg">
<path d="M46.7438 27.6473C46.7438 28.2333 47.2661 28.7556 47.8521 28.7556C48.438 28.7556 48.9603 28.2333 48.9603 27.6473V21.7773C50.4609 20.9289 51.373 19.4283 51.373 17.6678V12.6462C51.373 10.0373 49.2202 7.88449 46.6113 7.88449H34.1578V5.47179C34.1578 2.99283 32.1348 0.90625 29.5922 0.90625H22.5476C20.0686 0.90625 17.982 2.92918 17.982 5.47179V7.88449H5.58986C2.98097 7.88449 0.828125 10.0373 0.828125 12.6462V17.6678C0.828125 19.4283 1.74019 20.9952 3.24082 21.7773V38.9946C3.24082 41.6035 5.39367 43.7564 8.00255 43.7564H34.351C34.9369 43.7564 35.4592 43.2341 35.4592 42.6481C35.4592 42.0621 34.9369 41.5399 34.351 41.5399H8.00255C6.56819 41.5399 5.45993 40.4316 5.45993 38.9972V22.6252C7.80897 23.4073 11.2637 24.322 16.0253 24.8417C16.6112 24.9079 17.1998 24.4494 17.2634 23.8634C17.3297 23.2774 16.8711 22.6889 16.2851 22.6252C10.6113 21.973 6.8279 20.7985 4.67492 19.9501C3.69659 19.5577 3.04437 18.6456 3.04437 17.601V12.5794C3.04437 11.1451 4.21889 10.0368 5.58699 10.0368H46.6769C48.1113 10.0368 49.2195 11.2113 49.2195 12.5794V17.601C49.2195 18.6456 48.5673 19.5577 47.589 19.9501C45.4361 20.7985 41.6527 21.973 35.9788 22.6252C35.3928 22.6914 34.9342 23.2112 35.0004 23.8634C35.0667 24.4494 35.5227 24.8417 36.1087 24.8417H36.2386C41.0004 24.3194 44.4579 23.4073 46.804 22.6252L46.809 27.6468L46.7438 27.6473ZM20.1991 5.47179C20.1991 4.16735 21.2437 3.12276 22.5481 3.12276H29.5927C30.8972 3.12276 31.9418 4.16735 31.9418 5.47179V7.88449H20.1992L20.1991 5.47179Z" fill="#F9FAFB"/>
<path d="M23.3928 19.7539C21.3062 19.7539 19.6094 21.4507 19.6094 23.5373V25.6239C19.6094 27.7105 21.3062 29.4073 23.3928 29.4073H28.8067C30.8933 29.4073 32.5901 27.7105 32.5901 25.6239V23.5373C32.5901 21.4507 30.8933 19.7539 28.8067 19.7539H23.3928ZM30.4348 23.6035V25.6901C30.4348 26.6022 29.7163 27.3206 28.8042 27.3206H23.3903C22.4782 27.3206 21.7597 26.6022 21.7597 25.6901V23.6035C21.7597 22.6914 22.4782 21.973 23.3903 21.973H28.8042C29.7189 21.973 30.4348 22.6889 30.4348 23.6035Z" fill="#F9FAFB"/>
<path d="M50.272 30.9105C43.3571 30.9105 37.75 36.5207 37.75 43.4325C37.75 50.3474 43.3601 55.9545 50.272 55.9545C53.5994 55.9545 56.7279 54.6501 59.1435 52.301C61.4925 49.952 62.797 46.8234 62.797 43.4295C62.7944 36.5173 57.1839 30.9105 50.272 30.9105ZM57.5762 50.7367C55.6195 52.6934 53.0107 53.738 50.272 53.738C44.5982 53.738 39.9662 49.1062 39.9662 43.4323C39.9662 37.7583 44.5981 33.1265 50.272 33.1265C55.9459 33.1265 60.5777 37.7583 60.5777 43.4323C60.5777 46.1711 59.5329 48.7802 57.5762 50.7367Z" fill="#F9FAFB"/>
<path d="M54.6398 39.388L48.8998 45.1281L45.8985 42.1268C45.4425 41.6708 44.7902 41.6708 44.3342 42.1268C43.8782 42.5829 43.8782 43.2351 44.3342 43.6911L48.1176 47.4745C48.3138 47.6707 48.5737 47.8006 48.8998 47.8006C49.1596 47.8006 49.4857 47.6707 49.6819 47.4745L56.2041 40.9523C56.6602 40.4963 56.6602 39.844 56.2041 39.388C55.7481 38.9957 55.0959 38.9957 54.6398 39.388Z" fill="#F9FAFB"/>
</svg>
