<svg width="67" height="38" viewBox="0 0 67 38" fill="none" xmlns="http://www.w3.org/2000/svg">
<path d="M29.2976 28.0827C27.019 29.4711 26.3095 32.4366 27.7118 34.7139C29.1241 37.0078 32.1015 37.7265 34.3809 36.3375L35.8779 34.9233L53.4043 18.1719L30.633 27.5316L29.2976 28.0827Z" fill="white"/>
<path d="M58.3618 11.917C56.984 11.9965 55.8381 12.8974 55.3943 14.1427C50.0024 7.96251 42.0668 4.05437 33.2371 4.05437C17.015 4.05437 3.81999 17.2493 3.81999 33.4715C3.81999 34.4915 2.99199 35.3195 1.96528 35.3195C0.945185 35.3195 0.117188 34.4915 0.117188 33.4715C0.117188 15.2091 14.9748 0.351562 33.2371 0.351562C43.279 0.351563 52.2876 4.84262 58.3618 11.917Z" fill="white"/>
<path d="M66.3576 33.4723C66.3576 34.4924 65.5296 35.3204 64.5028 35.3204C63.4828 35.3204 62.6548 34.4924 62.6548 33.4723C62.6548 28.0672 61.1909 23.0064 58.6406 18.6545C60.0317 18.6346 61.2107 17.7735 61.7009 16.5547C64.6552 21.5094 66.3576 27.2922 66.3576 33.4723Z" fill="white"/>
<path d="M58.5713 17.5019C59.7972 17.5019 60.7909 16.5081 60.7909 15.2822C60.7909 14.0563 59.7972 13.0625 58.5713 13.0625C57.3454 13.0625 56.3516 14.0563 56.3516 15.2822C56.3516 16.5081 57.3454 17.5019 58.5713 17.5019Z" fill="white"/>
</svg>
