<svg width="48" height="64" viewBox="0 0 48 64" fill="none" xmlns="http://www.w3.org/2000/svg">
<path d="M23.711 49.4804L22.4133 46.8208L20.8286 49.3207L19.8335 46.5326L17.9784 48.8398L17.3013 45.9564L15.1959 48.042L14.8501 45.0986L12.5207 46.9316L12.513 44.5312L11.5921 48.5628L8.70312 61.2047L16.0214 57.3561L20.9439 64.0007L23.8306 51.3577L24.7426 47.3682L23.711 49.4804Z" fill="#FFBB00"/>
<path d="M34.9109 44.0352L34.8977 46.9364L32.5716 45.1001L32.2247 48.0435L30.1214 45.9579L29.4443 48.8425L27.5892 46.533L26.593 49.3211L25.0083 46.8211L23.7107 49.4808L22.8906 47.8008L23.7052 51.358L26.5919 64.0011L31.5144 57.3565L38.8305 61.2051L35.9437 48.5632L34.9109 44.0352Z" fill="#FFBB00"/>
<path d="M47.4173 23.7081L44.9694 24.9028L47.2698 26.3611L44.7034 27.2764L46.8277 28.9831L44.1748 29.6058L46.092 31.5417L43.3858 31.8598L45.0735 33.9986L42.3475 34.0119L43.7836 36.3235L41.0763 36.031L42.2433 38.4922L39.5848 37.8971L40.4724 40.4725L37.8959 39.5871L38.4899 42.2445L36.0298 41.0753L36.3223 43.7836L34.0085 42.3486L33.9973 45.0725L31.8587 43.3858L31.5406 46.0909L29.6057 44.1748L28.9841 46.8267L27.2785 44.7024L26.3611 47.2677L24.9027 44.9672L23.7081 47.4162L22.5134 44.9672L21.0551 47.2677L20.1387 44.7024L18.432 46.8267L17.8104 44.1748L15.8755 46.0909L15.5564 43.3848L13.4165 45.0714L13.4065 42.3475L11.0905 43.7836L11.3853 41.0753L8.92398 42.2433L9.51802 39.5838L6.94155 40.4703L7.83031 37.8971L5.17063 38.4889L6.33978 36.0287L3.63145 36.3235L5.0676 34.0075L2.34375 33.9963L4.02931 31.8577L1.32539 31.5407L3.24247 29.6058L0.590634 28.9831L2.71274 27.2764L0.147386 26.3634L2.4479 24.9028L0 23.7081L2.4479 22.5113L0.147386 21.053L2.71274 20.1376L0.589491 18.431L3.24247 17.8105L1.32539 15.8734L4.03146 15.5553L2.34489 13.4178L5.06874 13.4044L3.63259 11.0895L6.34093 11.3843L5.17292 8.92297L7.83145 9.51704L6.94599 6.94158L9.52131 7.83031L8.92624 5.17077L11.3874 6.3388L11.0928 3.63044L13.4088 5.06662L13.4199 2.34271L15.5586 4.02931L15.8767 1.32326L17.8116 3.24146L18.432 0.589624L20.1397 2.71288L21.0551 0.148555L22.5134 2.44803L23.7081 0L24.9048 2.44803L26.3611 0.14627L27.2785 2.71288L28.9852 0.589624L29.6068 3.24146L31.5428 1.32326L31.8598 4.02931L33.9996 2.34271L34.0107 5.06773L36.3245 3.63262L36.032 6.3388L38.4921 5.17294L37.8981 7.83031L40.4747 6.94599L39.5881 9.52033L42.2455 8.92627L41.0763 11.3853L43.7858 11.0928L42.3496 13.4066L45.0735 13.4199L43.3869 15.5587L46.092 15.8757L44.1748 17.8105L46.8277 18.431L44.7034 20.1399L47.2698 21.053L44.9694 22.5113L47.4173 23.7081Z" fill="#FFD45C"/>
<path d="M40.2253 26.8762C41.7951 17.9339 35.8186 9.41219 26.8763 7.84236C17.934 6.27254 9.41224 12.2491 7.84242 21.1914C6.27259 30.1337 12.2492 38.6554 21.1914 40.2252C30.1337 41.7951 38.6555 35.8185 40.2253 26.8762Z" fill="#D39816"/>
<path d="M15.0737 23.0309C15.3882 23.1463 15.7063 23.2527 16.0159 23.3797C16.2819 23.4887 16.5391 23.6197 16.7988 23.7437C17.2952 23.9808 17.7928 24.2159 18.286 24.4596C18.6307 24.6299 18.9682 24.8149 19.3104 24.9903C19.8725 25.2784 20.437 25.5617 20.9982 25.8515C21.3445 26.0303 21.6855 26.2194 22.0311 26.3998C22.1619 26.468 22.2989 26.5244 22.4549 26.5963C22.5668 26.4284 22.6828 26.2524 22.801 26.078C22.8935 25.9415 22.9887 25.8069 23.0826 25.6715C23.0951 25.6691 23.1138 25.6711 23.1192 25.6635C23.2338 25.5049 23.347 25.3451 23.4604 25.1856L23.4654 25.181C23.6519 24.9446 23.8389 24.7087 24.0243 24.4714C24.0696 24.4134 24.1091 24.351 24.1514 24.2906C24.529 23.8294 24.9075 23.369 25.2839 22.9068C25.4511 22.7014 25.6064 22.4859 25.7807 22.2868C26.0326 21.999 26.2966 21.7217 26.556 21.4404C26.9569 21.0057 27.35 20.5632 27.7616 20.1388C28.3426 19.5397 28.9332 18.9499 29.5279 18.3644C29.8727 18.0249 30.2329 17.701 30.5873 17.3713C30.8338 17.1419 31.0821 16.9144 31.3296 16.6861C31.353 16.6708 31.3785 16.6577 31.3996 16.6397C31.7942 16.3031 32.1883 15.966 32.5823 15.6288C32.7355 15.4977 32.8881 15.3662 33.041 15.2348C33.2193 15.0944 33.3976 14.9539 33.5761 14.8137C33.7957 14.6411 34.0124 14.4647 34.2359 14.2973C34.7201 13.9348 35.206 13.5743 35.6949 13.2182C35.9708 13.0173 36.2529 12.8249 36.5342 12.6316C36.8383 12.4226 37.1382 12.2063 37.4515 12.012C38.1016 11.6088 38.7551 11.2106 39.4156 10.8247C39.8461 10.5731 40.2913 10.3467 40.73 10.109C40.8153 10.0727 40.9007 10.0363 40.986 10C40.9907 10.0073 40.9953 10.0146 41 10.0219C40.9816 10.0507 40.9633 10.0796 40.9449 10.1085L40.9436 10.1091C40.8219 10.2218 40.7001 10.3345 40.5784 10.4471L40.5778 10.4474C40.3948 10.6125 40.2089 10.7743 40.0298 10.9434C39.8614 11.1024 39.7002 11.269 39.5358 11.4323C39.0582 11.915 38.5793 12.3964 38.1035 12.8811C37.9046 13.0836 37.7077 13.2885 37.5183 13.4999C37.1047 13.9616 36.6964 14.4281 36.2859 14.8926C36.192 15.0054 36.098 15.1181 36.0041 15.2309C35.8697 15.3861 35.7336 15.5398 35.6014 15.6969C35.3479 15.9981 35.0901 16.2962 34.846 16.6049C34.5011 17.041 34.1671 17.4855 33.8283 17.9264C33.6717 18.1302 33.5115 18.3314 33.3591 18.5383C33.0591 18.9457 32.7609 19.3545 32.4667 19.7662C32.2563 20.0605 32.0516 20.359 31.8479 20.658C31.6148 21.0004 31.3834 21.3441 31.1552 21.6897C30.8653 22.1286 30.5763 22.5682 30.2927 23.0112C30.1341 23.259 29.9901 23.5161 29.8343 23.7657C29.6328 24.0883 29.4189 24.4034 29.2234 24.7295C28.9468 25.1906 28.6829 25.6594 28.412 26.1241C28.1832 26.5165 27.9475 26.905 27.7235 27.3001C27.5286 27.6441 27.3491 27.9968 27.1566 28.3423C26.9828 28.6542 26.7977 28.9598 26.6235 29.2715C26.5395 29.422 26.4728 29.5821 26.3921 29.7346C26.2511 30.0005 26.1015 30.2619 25.9626 30.5288C25.7828 30.8743 25.6064 31.2217 25.435 31.5715C25.2421 31.965 25.0406 32.3502 24.6609 32.6025C24.3077 32.8373 23.9155 32.9383 23.5003 32.8715C23.0421 32.7978 22.6345 32.5955 22.2871 32.2812C21.6921 31.7425 21.0934 31.2078 20.5023 30.6648C19.9683 30.174 19.4365 29.6806 18.9145 29.177C18.3664 28.6482 17.8316 28.1057 17.2903 27.5698C17.0589 27.3407 16.8228 27.1161 16.5941 26.8843C16.1462 26.4302 15.7012 25.9732 15.2567 25.5159C14.9774 25.2285 14.6944 24.9443 14.4259 24.6471C14.2691 24.4735 14.1482 24.2714 14.09 24.0387C14.0624 23.9282 14.0219 23.8195 14.0066 23.7074C13.9785 23.5015 14.0412 23.3176 14.1752 23.1585C14.2152 23.1354 14.254 23.1098 14.2955 23.0898C14.4921 22.995 14.699 22.9947 14.9094 23.0237C14.9635 23.0311 15.0189 23.0288 15.0737 23.0309Z" fill="white"/>
</svg>
