<svg width="1493" height="1394" viewBox="0 0 1493 1394" fill="none" xmlns="http://www.w3.org/2000/svg">
<path d="M66.4107 10.203H1V60.724H66.4107V10.203Z" stroke="#D1D1D1" stroke-opacity="0.04" stroke-width="1.48016"/>
<path d="M131.825 10.203H66.4141V60.724H131.825V10.203Z" stroke="#D1D1D1" stroke-opacity="0.04" stroke-width="1.48016"/>
<path d="M197.239 10.203H131.828V60.724H197.239V10.203Z" stroke="#D1D1D1" stroke-opacity="0.04" stroke-width="1.48016"/>
<path d="M262.645 10.203H197.234V60.724H262.645V10.203Z" stroke="#D1D1D1" stroke-opacity="0.04" stroke-width="1.48016"/>
<path d="M328.051 10.203H262.641V60.724H328.051V10.203Z" stroke="#D1D1D1" stroke-opacity="0.04" stroke-width="1.48016"/>
<path d="M393.465 10.203H328.055V60.724H393.465V10.203Z" stroke="#D1D1D1" stroke-opacity="0.04" stroke-width="1.48016"/>
<path d="M458.872 10.203H393.461V60.724H458.872V10.203Z" stroke="#D1D1D1" stroke-opacity="0.04" stroke-width="1.48016"/>
<path d="M524.286 10.203H458.875V60.724H524.286V10.203Z" stroke="#D1D1D1" stroke-opacity="0.04" stroke-width="1.48016"/>
<path d="M589.692 10.203H524.281V60.724H589.692V10.203Z" stroke="#D1D1D1" stroke-opacity="0.04" stroke-width="1.48016"/>
<path d="M655.106 10.203H589.695V60.724H655.106V10.203Z" stroke="#D1D1D1" stroke-opacity="0.04" stroke-width="1.48016"/>
<path d="M720.52 10.203H655.109V60.724H720.52V10.203Z" stroke="#D1D1D1" stroke-opacity="0.04" stroke-width="1.48016"/>
<path d="M66.4107 60.7264H1V111.247H66.4107V60.7264Z" stroke="#D1D1D1" stroke-opacity="0.04" stroke-width="1.48016"/>
<path d="M131.817 60.7264H66.4062V111.247H131.817V60.7264Z" stroke="#D1D1D1" stroke-opacity="0.04" stroke-width="1.48016"/>
<path d="M197.239 60.7264H131.828V111.247H197.239V60.7264Z" stroke="#D1D1D1" stroke-opacity="0.04" stroke-width="1.48016"/>
<path d="M262.637 60.7264H197.227V111.247H262.637V60.7264Z" stroke="#D1D1D1" stroke-opacity="0.04" stroke-width="1.48016"/>
<path d="M328.051 60.7264H262.641V111.247H328.051V60.7264Z" stroke="#D1D1D1" stroke-opacity="0.04" stroke-width="1.48016"/>
<path d="M393.465 60.7264H328.055V111.247H393.465V60.7264Z" stroke="#D1D1D1" stroke-opacity="0.04" stroke-width="1.48016"/>
<path d="M458.872 60.7264H393.461V111.247H458.872V60.7264Z" stroke="#D1D1D1" stroke-opacity="0.04" stroke-width="1.48016"/>
<path d="M524.286 60.7264H458.875V111.247H524.286V60.7264Z" stroke="#D1D1D1" stroke-opacity="0.04" stroke-width="1.48016"/>
<path d="M589.692 60.7264H524.281V111.247H589.692V60.7264Z" stroke="#D1D1D1" stroke-opacity="0.04" stroke-width="1.48016"/>
<path d="M655.106 60.7264H589.695V111.247H655.106V60.7264Z" stroke="#D1D1D1" stroke-opacity="0.04" stroke-width="1.48016"/>
<path d="M720.52 60.7264H655.109V111.247H720.52V60.7264Z" stroke="#D1D1D1" stroke-opacity="0.04" stroke-width="1.48016"/>
<path d="M66.4107 111.246H1V161.767H66.4107V111.246Z" stroke="#D1D1D1" stroke-opacity="0.04" stroke-width="1.48016"/>
<path d="M131.825 111.246H66.4141V161.767H131.825V111.246Z" stroke="#D1D1D1" stroke-opacity="0.04" stroke-width="1.48016"/>
<path d="M197.239 111.246H131.828V161.767H197.239V111.246Z" stroke="#D1D1D1" stroke-opacity="0.04" stroke-width="1.48016"/>
<path d="M262.645 111.246H197.234V161.767H262.645V111.246Z" stroke="#D1D1D1" stroke-opacity="0.04" stroke-width="1.48016"/>
<path d="M328.051 111.246H262.641V161.767H328.051V111.246Z" stroke="#D1D1D1" stroke-opacity="0.04" stroke-width="1.48016"/>
<path d="M393.465 111.246H328.055V161.767H393.465V111.246Z" stroke="#D1D1D1" stroke-opacity="0.04" stroke-width="1.48016"/>
<path d="M458.872 111.246H393.461V161.767H458.872V111.246Z" stroke="#D1D1D1" stroke-opacity="0.04" stroke-width="1.48016"/>
<path d="M524.286 111.246H458.875V161.767H524.286V111.246Z" stroke="#D1D1D1" stroke-opacity="0.04" stroke-width="1.48016"/>
<path d="M589.692 111.246H524.281V161.767H589.692V111.246Z" stroke="#D1D1D1" stroke-opacity="0.04" stroke-width="1.48016"/>
<path d="M655.106 111.246H589.695V161.767H655.106V111.246Z" stroke="#D1D1D1" stroke-opacity="0.04" stroke-width="1.48016"/>
<path d="M720.52 111.246H655.109V161.767H720.52V111.246Z" stroke="#D1D1D1" stroke-opacity="0.04" stroke-width="1.48016"/>
<path d="M66.4107 161.766H1V212.286H66.4107V161.766Z" stroke="#D1D1D1" stroke-opacity="0.04" stroke-width="1.48016"/>
<path d="M131.817 161.766H66.4062V212.286H131.817V161.766Z" stroke="#D1D1D1" stroke-opacity="0.04" stroke-width="1.48016"/>
<path d="M197.239 161.766H131.828V212.286H197.239V161.766Z" stroke="#D1D1D1" stroke-opacity="0.04" stroke-width="1.48016"/>
<path d="M262.637 161.766H197.227V212.286H262.637V161.766Z" stroke="#D1D1D1" stroke-opacity="0.04" stroke-width="1.48016"/>
<path d="M328.051 161.766H262.641V212.286H328.051V161.766Z" stroke="#D1D1D1" stroke-opacity="0.04" stroke-width="1.48016"/>
<path d="M393.465 161.766H328.055V212.286H393.465V161.766Z" stroke="#D1D1D1" stroke-opacity="0.04" stroke-width="1.48016"/>
<path d="M458.872 161.766H393.461V212.286H458.872V161.766Z" stroke="#D1D1D1" stroke-opacity="0.04" stroke-width="1.48016"/>
<path d="M524.286 161.766H458.875V212.286H524.286V161.766Z" stroke="#D1D1D1" stroke-opacity="0.04" stroke-width="1.48016"/>
<path d="M589.692 161.766H524.281V212.286H589.692V161.766Z" stroke="#D1D1D1" stroke-opacity="0.04" stroke-width="1.48016"/>
<path d="M655.106 161.766H589.695V212.286H655.106V161.766Z" stroke="#D1D1D1" stroke-opacity="0.04" stroke-width="1.48016"/>
<path d="M720.52 161.766H655.109V212.286H720.52V161.766Z" stroke="#D1D1D1" stroke-opacity="0.04" stroke-width="1.48016"/>
<path d="M66.4107 212.289H1V262.81H66.4107V212.289Z" stroke="#D1D1D1" stroke-opacity="0.04" stroke-width="1.48016"/>
<path d="M131.825 212.289H66.4141V262.81H131.825V212.289Z" stroke="#D1D1D1" stroke-opacity="0.04" stroke-width="1.48016"/>
<path d="M197.239 212.289H131.828V262.81H197.239V212.289Z" stroke="#D1D1D1" stroke-opacity="0.04" stroke-width="1.48016"/>
<path d="M262.645 212.289H197.234V262.81H262.645V212.289Z" stroke="#D1D1D1" stroke-opacity="0.04" stroke-width="1.48016"/>
<path d="M328.051 212.289H262.641V262.81H328.051V212.289Z" stroke="#D1D1D1" stroke-opacity="0.04" stroke-width="1.48016"/>
<path d="M393.465 212.289H328.055V262.81H393.465V212.289Z" stroke="#D1D1D1" stroke-opacity="0.04" stroke-width="1.48016"/>
<path d="M458.872 212.289H393.461V262.81H458.872V212.289Z" stroke="#D1D1D1" stroke-opacity="0.04" stroke-width="1.48016"/>
<path d="M524.286 212.289H458.875V262.81H524.286V212.289Z" stroke="#D1D1D1" stroke-opacity="0.04" stroke-width="1.48016"/>
<path d="M589.692 212.289H524.281V262.81H589.692V212.289Z" stroke="#D1D1D1" stroke-opacity="0.04" stroke-width="1.48016"/>
<path d="M655.106 212.289H589.695V262.81H655.106V212.289Z" stroke="#D1D1D1" stroke-opacity="0.04" stroke-width="1.48016"/>
<path d="M720.52 212.289H655.109V262.81H720.52V212.289Z" stroke="#D1D1D1" stroke-opacity="0.04" stroke-width="1.48016"/>
<path d="M66.4107 262.808H1V313.329H66.4107V262.808Z" stroke="#D1D1D1" stroke-opacity="0.04" stroke-width="1.48016"/>
<path d="M131.817 262.808H66.4062V313.329H131.817V262.808Z" stroke="#D1D1D1" stroke-opacity="0.04" stroke-width="1.48016"/>
<path d="M197.239 262.808H131.828V313.329H197.239V262.808Z" stroke="#D1D1D1" stroke-opacity="0.04" stroke-width="1.48016"/>
<path d="M262.637 262.808H197.227V313.329H262.637V262.808Z" stroke="#D1D1D1" stroke-opacity="0.04" stroke-width="1.48016"/>
<path d="M328.051 262.808H262.641V313.329H328.051V262.808Z" stroke="#D1D1D1" stroke-opacity="0.04" stroke-width="1.48016"/>
<path d="M393.465 262.808H328.055V313.329H393.465V262.808Z" stroke="#D1D1D1" stroke-opacity="0.04" stroke-width="1.48016"/>
<path d="M458.872 262.808H393.461V313.329H458.872V262.808Z" stroke="#D1D1D1" stroke-opacity="0.04" stroke-width="1.48016"/>
<path d="M524.286 262.808H458.875V313.329H524.286V262.808Z" stroke="#D1D1D1" stroke-opacity="0.04" stroke-width="1.48016"/>
<path d="M589.692 262.808H524.281V313.329H589.692V262.808Z" stroke="#D1D1D1" stroke-opacity="0.04" stroke-width="1.48016"/>
<path d="M655.106 262.808H589.695V313.329H655.106V262.808Z" stroke="#D1D1D1" stroke-opacity="0.04" stroke-width="1.48016"/>
<path d="M720.52 262.808H655.109V313.329H720.52V262.808Z" stroke="#D1D1D1" stroke-opacity="0.04" stroke-width="1.48016"/>
<path d="M66.4107 313.328H1V363.849H66.4107V313.328Z" stroke="#D1D1D1" stroke-opacity="0.04" stroke-width="1.48016"/>
<path d="M131.817 313.328H66.4062V363.849H131.817V313.328Z" stroke="#D1D1D1" stroke-opacity="0.04" stroke-width="1.48016"/>
<path d="M197.239 313.328H131.828V363.849H197.239V313.328Z" stroke="#D1D1D1" stroke-opacity="0.04" stroke-width="1.48016"/>
<path d="M262.637 313.328H197.227V363.849H262.637V313.328Z" stroke="#D1D1D1" stroke-opacity="0.04" stroke-width="1.48016"/>
<path d="M328.051 313.328H262.641V363.849H328.051V313.328Z" stroke="#D1D1D1" stroke-opacity="0.04" stroke-width="1.48016"/>
<path d="M393.465 313.328H328.055V363.849H393.465V313.328Z" stroke="#D1D1D1" stroke-opacity="0.04" stroke-width="1.48016"/>
<path d="M458.872 313.328H393.461V363.849H458.872V313.328Z" stroke="#D1D1D1" stroke-opacity="0.04" stroke-width="1.48016"/>
<path d="M524.286 313.328H458.875V363.849H524.286V313.328Z" stroke="#D1D1D1" stroke-opacity="0.04" stroke-width="1.48016"/>
<path d="M589.692 313.328H524.281V363.849H589.692V313.328Z" stroke="#D1D1D1" stroke-opacity="0.04" stroke-width="1.48016"/>
<path d="M655.106 313.328H589.695V363.849H655.106V313.328Z" stroke="#D1D1D1" stroke-opacity="0.04" stroke-width="1.48016"/>
<path d="M720.52 313.328H655.109V363.849H720.52V313.328Z" stroke="#D1D1D1" stroke-opacity="0.04" stroke-width="1.48016"/>
<path d="M66.4107 363.848H1V414.368H66.4107V363.848Z" stroke="#D1D1D1" stroke-opacity="0.04" stroke-width="1.48016"/>
<path d="M131.817 363.848H66.4062V414.368H131.817V363.848Z" stroke="#D1D1D1" stroke-opacity="0.04" stroke-width="1.48016"/>
<path d="M197.239 363.848H131.828V414.368H197.239V363.848Z" stroke="#D1D1D1" stroke-opacity="0.04" stroke-width="1.48016"/>
<path d="M262.637 363.848H197.227V414.368H262.637V363.848Z" stroke="#D1D1D1" stroke-opacity="0.04" stroke-width="1.48016"/>
<path d="M328.051 363.848H262.641V414.368H328.051V363.848Z" stroke="#D1D1D1" stroke-opacity="0.04" stroke-width="1.48016"/>
<path d="M393.465 363.848H328.055V414.368H393.465V363.848Z" stroke="#D1D1D1" stroke-opacity="0.04" stroke-width="1.48016"/>
<path d="M458.872 363.848H393.461V414.368H458.872V363.848Z" stroke="#D1D1D1" stroke-opacity="0.04" stroke-width="1.48016"/>
<path d="M524.286 363.848H458.875V414.368H524.286V363.848Z" stroke="#D1D1D1" stroke-opacity="0.04" stroke-width="1.48016"/>
<path d="M589.692 363.848H524.281V414.368H589.692V363.848Z" stroke="#D1D1D1" stroke-opacity="0.04" stroke-width="1.48016"/>
<path d="M655.106 363.848H589.695V414.368H655.106V363.848Z" stroke="#D1D1D1" stroke-opacity="0.04" stroke-width="1.48016"/>
<path d="M720.52 363.848H655.109V414.368H720.52V363.848Z" stroke="#D1D1D1" stroke-opacity="0.04" stroke-width="1.48016"/>
<path d="M66.4107 414.371H1V464.892H66.4107V414.371Z" stroke="#D1D1D1" stroke-opacity="0.04" stroke-width="1.48016"/>
<path d="M131.825 414.371H66.4141V464.892H131.825V414.371Z" stroke="#D1D1D1" stroke-opacity="0.04" stroke-width="1.48016"/>
<path d="M197.239 414.371H131.828V464.892H197.239V414.371Z" stroke="#D1D1D1" stroke-opacity="0.04" stroke-width="1.48016"/>
<path d="M262.645 414.371H197.234V464.892H262.645V414.371Z" stroke="#D1D1D1" stroke-opacity="0.04" stroke-width="1.48016"/>
<path d="M328.051 414.371H262.641V464.892H328.051V414.371Z" stroke="#D1D1D1" stroke-opacity="0.04" stroke-width="1.48016"/>
<path d="M393.465 414.371H328.055V464.892H393.465V414.371Z" stroke="#D1D1D1" stroke-opacity="0.04" stroke-width="1.48016"/>
<path d="M458.872 414.371H393.461V464.892H458.872V414.371Z" stroke="#D1D1D1" stroke-opacity="0.04" stroke-width="1.48016"/>
<path d="M524.286 414.371H458.875V464.892H524.286V414.371Z" stroke="#D1D1D1" stroke-opacity="0.04" stroke-width="1.48016"/>
<path d="M589.692 414.371H524.281V464.892H589.692V414.371Z" stroke="#D1D1D1" stroke-opacity="0.04" stroke-width="1.48016"/>
<path d="M655.106 414.371H589.695V464.892H655.106V414.371Z" stroke="#D1D1D1" stroke-opacity="0.04" stroke-width="1.48016"/>
<path d="M720.52 414.371H655.109V464.892H720.52V414.371Z" stroke="#D1D1D1" stroke-opacity="0.04" stroke-width="1.48016"/>
<path d="M66.4107 464.891H1V515.411H66.4107V464.891Z" stroke="#D1D1D1" stroke-opacity="0.04" stroke-width="1.48016"/>
<path d="M131.825 464.891H66.4141V515.411H131.825V464.891Z" stroke="#D1D1D1" stroke-opacity="0.04" stroke-width="1.48016"/>
<path d="M197.239 464.891H131.828V515.411H197.239V464.891Z" stroke="#D1D1D1" stroke-opacity="0.04" stroke-width="1.48016"/>
<path d="M262.645 464.891H197.234V515.411H262.645V464.891Z" stroke="#D1D1D1" stroke-opacity="0.04" stroke-width="1.48016"/>
<path d="M328.051 464.891H262.641V515.411H328.051V464.891Z" stroke="#D1D1D1" stroke-opacity="0.04" stroke-width="1.48016"/>
<path d="M393.465 464.891H328.055V515.411H393.465V464.891Z" stroke="#D1D1D1" stroke-opacity="0.04" stroke-width="1.48016"/>
<path d="M458.872 464.891H393.461V515.411H458.872V464.891Z" stroke="#D1D1D1" stroke-opacity="0.04" stroke-width="1.48016"/>
<path d="M524.286 464.891H458.875V515.411H524.286V464.891Z" stroke="#D1D1D1" stroke-opacity="0.04" stroke-width="1.48016"/>
<path d="M589.692 464.891H524.281V515.411H589.692V464.891Z" stroke="#D1D1D1" stroke-opacity="0.04" stroke-width="1.48016"/>
<path d="M655.106 464.891H589.695V515.411H655.106V464.891Z" stroke="#D1D1D1" stroke-opacity="0.04" stroke-width="1.48016"/>
<path d="M720.52 464.891H655.109V515.411H720.52V464.891Z" stroke="#D1D1D1" stroke-opacity="0.04" stroke-width="1.48016"/>
<path d="M66.4107 515.414H1V565.935H66.4107V515.414Z" stroke="#D1D1D1" stroke-opacity="0.04" stroke-width="1.48016"/>
<path d="M131.825 515.414H66.4141V565.935H131.825V515.414Z" stroke="#D1D1D1" stroke-opacity="0.04" stroke-width="1.48016"/>
<path d="M197.239 515.414H131.828V565.935H197.239V515.414Z" stroke="#D1D1D1" stroke-opacity="0.04" stroke-width="1.48016"/>
<path d="M262.645 515.414H197.234V565.935H262.645V515.414Z" stroke="#D1D1D1" stroke-opacity="0.04" stroke-width="1.48016"/>
<path d="M328.051 515.414H262.641V565.935H328.051V515.414Z" stroke="#D1D1D1" stroke-opacity="0.04" stroke-width="1.48016"/>
<path d="M393.465 515.414H328.055V565.935H393.465V515.414Z" stroke="#D1D1D1" stroke-opacity="0.04" stroke-width="1.48016"/>
<path d="M458.872 515.414H393.461V565.935H458.872V515.414Z" stroke="#D1D1D1" stroke-opacity="0.04" stroke-width="1.48016"/>
<path d="M524.286 515.414H458.875V565.935H524.286V515.414Z" stroke="#D1D1D1" stroke-opacity="0.04" stroke-width="1.48016"/>
<path d="M589.692 515.414H524.281V565.935H589.692V515.414Z" stroke="#D1D1D1" stroke-opacity="0.04" stroke-width="1.48016"/>
<path d="M655.106 515.414H589.695V565.935H655.106V515.414Z" stroke="#D1D1D1" stroke-opacity="0.04" stroke-width="1.48016"/>
<mask id="mask0_3_474" style="mask-type:alpha" maskUnits="userSpaceOnUse" x="1" y="0" width="1492" height="1394">
<mask id="path-121-inside-1_3_474" fill="white">
<path d="M1 12.1772C1 5.63749 6.30152 0.335938 12.8413 0.335938H1481.16C1487.7 0.335938 1493 5.63745 1493 12.1772V1381.82C1493 1388.36 1487.7 1393.66 1481.16 1393.66H12.8413C6.30156 1393.66 1 1388.36 1 1381.82V12.1772Z"/>
</mask>
<path d="M1 12.1772C1 5.63749 6.30152 0.335938 12.8413 0.335938H1481.16C1487.7 0.335938 1493 5.63745 1493 12.1772V1381.82C1493 1388.36 1487.7 1393.66 1481.16 1393.66H12.8413C6.30156 1393.66 1 1388.36 1 1381.82V12.1772Z" fill="url(#paint0_linear_3_474)"/>
<path d="M1 12.1772C1 5.09248 6.74331 -0.650835 13.828 -0.650835H1481.16C1488.24 -0.650835 1493.99 5.09248 1493.99 12.1772L1492.01 12.1772C1492.01 6.18243 1487.15 1.32271 1481.16 1.32271H12.8413C6.30152 1.32271 1 6.18243 1 12.1772V12.1772ZM1493.99 1381.82C1493.99 1388.9 1488.24 1394.65 1481.16 1394.65H13.828C6.74331 1394.65 1 1388.9 1 1381.82V1381.82C1 1387.81 6.30152 1392.67 12.8413 1392.67H1481.16C1487.15 1392.67 1492.01 1387.81 1492.01 1381.82L1493.99 1381.82ZM1 1393.66V0.335938V1393.66ZM1481.16 -0.650835C1488.24 -0.650835 1493.99 5.09248 1493.99 12.1772V1381.82C1493.99 1388.9 1488.24 1394.65 1481.16 1394.65L1481.16 1392.67C1487.15 1392.67 1492.01 1387.81 1492.01 1381.82V12.1772C1492.01 6.18243 1487.15 1.32271 1481.16 1.32271L1481.16 -0.650835Z" fill="black" fill-opacity="0.08" mask="url(#path-121-inside-1_3_474)"/>
</mask>
<g mask="url(#mask0_3_474)">
<path d="M66.4107 566.742H1V617.263H66.4107V566.742Z" stroke="#D1D1D1" stroke-opacity="0.04" stroke-width="1.48016"/>
<path d="M131.825 566.742H66.4141V617.263H131.825V566.742Z" stroke="#D1D1D1" stroke-opacity="0.04" stroke-width="1.48016"/>
<path d="M197.239 566.742H131.828V617.263H197.239V566.742Z" stroke="#D1D1D1" stroke-opacity="0.04" stroke-width="1.48016"/>
<path d="M262.645 566.742H197.234V617.263H262.645V566.742Z" stroke="#D1D1D1" stroke-opacity="0.04" stroke-width="1.48016"/>
<path d="M328.051 566.742H262.641V617.263H328.051V566.742Z" stroke="#D1D1D1" stroke-opacity="0.04" stroke-width="1.48016"/>
<path d="M393.465 566.742H328.055V617.263H393.465V566.742Z" stroke="#D1D1D1" stroke-opacity="0.04" stroke-width="1.48016"/>
<path d="M458.872 566.742H393.461V617.263H458.872V566.742Z" stroke="#D1D1D1" stroke-opacity="0.04" stroke-width="1.48016"/>
<path d="M524.286 566.742H458.875V617.263H524.286V566.742Z" stroke="#D1D1D1" stroke-opacity="0.04" stroke-width="1.48016"/>
<path d="M589.692 566.742H524.281V617.263H589.692V566.742Z" stroke="#D1D1D1" stroke-opacity="0.04" stroke-width="1.48016"/>
<path d="M655.106 566.742H589.695V617.263H655.106V566.742Z" stroke="#D1D1D1" stroke-opacity="0.04" stroke-width="1.48016"/>
<path d="M720.52 566.742H655.109V617.263H720.52V566.742Z" stroke="#D1D1D1" stroke-opacity="0.04" stroke-width="1.48016"/>
<path d="M66.4107 617.266H1V667.787H66.4107V617.266Z" stroke="#D1D1D1" stroke-opacity="0.04" stroke-width="1.48016"/>
<path d="M131.817 617.266H66.4062V667.787H131.817V617.266Z" stroke="#D1D1D1" stroke-opacity="0.04" stroke-width="1.48016"/>
<path d="M197.239 617.266H131.828V667.787H197.239V617.266Z" stroke="#D1D1D1" stroke-opacity="0.04" stroke-width="1.48016"/>
<path d="M262.637 617.266H197.227V667.787H262.637V617.266Z" stroke="#D1D1D1" stroke-opacity="0.04" stroke-width="1.48016"/>
<path d="M328.051 617.266H262.641V667.787H328.051V617.266Z" stroke="#D1D1D1" stroke-opacity="0.04" stroke-width="1.48016"/>
<path d="M393.465 617.266H328.055V667.787H393.465V617.266Z" stroke="#D1D1D1" stroke-opacity="0.04" stroke-width="1.48016"/>
<path d="M458.872 617.266H393.461V667.787H458.872V617.266Z" stroke="#D1D1D1" stroke-opacity="0.04" stroke-width="1.48016"/>
<path d="M524.286 617.266H458.875V667.787H524.286V617.266Z" stroke="#D1D1D1" stroke-opacity="0.04" stroke-width="1.48016"/>
<path d="M589.692 617.266H524.281V667.787H589.692V617.266Z" stroke="#D1D1D1" stroke-opacity="0.04" stroke-width="1.48016"/>
<path d="M655.106 617.266H589.695V667.787H655.106V617.266Z" stroke="#D1D1D1" stroke-opacity="0.04" stroke-width="1.48016"/>
<path d="M720.52 617.266H655.109V667.787H720.52V617.266Z" stroke="#D1D1D1" stroke-opacity="0.04" stroke-width="1.48016"/>
<path d="M66.4107 667.785H1V718.306H66.4107V667.785Z" stroke="#D1D1D1" stroke-opacity="0.04" stroke-width="1.48016"/>
<path d="M131.825 667.785H66.4141V718.306H131.825V667.785Z" stroke="#D1D1D1" stroke-opacity="0.04" stroke-width="1.48016"/>
<path d="M197.239 667.785H131.828V718.306H197.239V667.785Z" stroke="#D1D1D1" stroke-opacity="0.04" stroke-width="1.48016"/>
<path d="M262.645 667.785H197.234V718.306H262.645V667.785Z" stroke="#D1D1D1" stroke-opacity="0.04" stroke-width="1.48016"/>
<path d="M328.051 667.785H262.641V718.306H328.051V667.785Z" stroke="#D1D1D1" stroke-opacity="0.04" stroke-width="1.48016"/>
<path d="M393.465 667.785H328.055V718.306H393.465V667.785Z" stroke="#D1D1D1" stroke-opacity="0.04" stroke-width="1.48016"/>
<path d="M458.872 667.785H393.461V718.306H458.872V667.785Z" stroke="#D1D1D1" stroke-opacity="0.04" stroke-width="1.48016"/>
<path d="M524.286 667.785H458.875V718.306H524.286V667.785Z" stroke="#D1D1D1" stroke-opacity="0.04" stroke-width="1.48016"/>
<path d="M589.692 667.785H524.281V718.306H589.692V667.785Z" stroke="#D1D1D1" stroke-opacity="0.04" stroke-width="1.48016"/>
<path d="M655.106 667.785H589.695V718.306H655.106V667.785Z" stroke="#D1D1D1" stroke-opacity="0.04" stroke-width="1.48016"/>
<path d="M720.52 667.785H655.109V718.306H720.52V667.785Z" stroke="#D1D1D1" stroke-opacity="0.04" stroke-width="1.48016"/>
<path d="M66.4107 718.305H1V768.826H66.4107V718.305Z" stroke="#D1D1D1" stroke-opacity="0.04" stroke-width="1.48016"/>
<path d="M131.817 718.305H66.4062V768.826H131.817V718.305Z" stroke="#D1D1D1" stroke-opacity="0.04" stroke-width="1.48016"/>
<path d="M197.239 718.305H131.828V768.826H197.239V718.305Z" stroke="#D1D1D1" stroke-opacity="0.04" stroke-width="1.48016"/>
<path d="M262.637 718.305H197.227V768.826H262.637V718.305Z" stroke="#D1D1D1" stroke-opacity="0.04" stroke-width="1.48016"/>
<path d="M328.051 718.305H262.641V768.826H328.051V718.305Z" stroke="#D1D1D1" stroke-opacity="0.04" stroke-width="1.48016"/>
<path d="M393.465 718.305H328.055V768.826H393.465V718.305Z" stroke="#D1D1D1" stroke-opacity="0.04" stroke-width="1.48016"/>
<path d="M458.872 718.305H393.461V768.826H458.872V718.305Z" stroke="#D1D1D1" stroke-opacity="0.04" stroke-width="1.48016"/>
<path d="M524.286 718.305H458.875V768.826H524.286V718.305Z" stroke="#D1D1D1" stroke-opacity="0.04" stroke-width="1.48016"/>
<path d="M589.692 718.305H524.281V768.826H589.692V718.305Z" stroke="#D1D1D1" stroke-opacity="0.04" stroke-width="1.48016"/>
<path d="M655.106 718.305H589.695V768.826H655.106V718.305Z" stroke="#D1D1D1" stroke-opacity="0.04" stroke-width="1.48016"/>
<path d="M720.52 718.305H655.109V768.826H720.52V718.305Z" stroke="#D1D1D1" stroke-opacity="0.04" stroke-width="1.48016"/>
<path d="M66.4107 768.828H1V819.349H66.4107V768.828Z" stroke="#D1D1D1" stroke-opacity="0.04" stroke-width="1.48016"/>
<path d="M131.825 768.828H66.4141V819.349H131.825V768.828Z" stroke="#D1D1D1" stroke-opacity="0.04" stroke-width="1.48016"/>
<path d="M197.239 768.828H131.828V819.349H197.239V768.828Z" stroke="#D1D1D1" stroke-opacity="0.04" stroke-width="1.48016"/>
<path d="M262.645 768.828H197.234V819.349H262.645V768.828Z" stroke="#D1D1D1" stroke-opacity="0.04" stroke-width="1.48016"/>
<path d="M328.051 768.828H262.641V819.349H328.051V768.828Z" stroke="#D1D1D1" stroke-opacity="0.04" stroke-width="1.48016"/>
<path d="M393.465 768.828H328.055V819.349H393.465V768.828Z" stroke="#D1D1D1" stroke-opacity="0.04" stroke-width="1.48016"/>
<path d="M458.872 768.828H393.461V819.349H458.872V768.828Z" stroke="#D1D1D1" stroke-opacity="0.04" stroke-width="1.48016"/>
<path d="M524.286 768.828H458.875V819.349H524.286V768.828Z" stroke="#D1D1D1" stroke-opacity="0.04" stroke-width="1.48016"/>
<path d="M589.692 768.828H524.281V819.349H589.692V768.828Z" stroke="#D1D1D1" stroke-opacity="0.04" stroke-width="1.48016"/>
<path d="M655.106 768.828H589.695V819.349H655.106V768.828Z" stroke="#D1D1D1" stroke-opacity="0.04" stroke-width="1.48016"/>
<path d="M720.52 768.828H655.109V819.349H720.52V768.828Z" stroke="#D1D1D1" stroke-opacity="0.04" stroke-width="1.48016"/>
<path d="M66.4107 819.348H1V869.869H66.4107V819.348Z" stroke="#D1D1D1" stroke-opacity="0.04" stroke-width="1.48016"/>
<path d="M131.817 819.348H66.4062V869.869H131.817V819.348Z" stroke="#D1D1D1" stroke-opacity="0.04" stroke-width="1.48016"/>
<path d="M197.239 819.348H131.828V869.869H197.239V819.348Z" stroke="#D1D1D1" stroke-opacity="0.04" stroke-width="1.48016"/>
<path d="M262.637 819.348H197.227V869.869H262.637V819.348Z" stroke="#D1D1D1" stroke-opacity="0.04" stroke-width="1.48016"/>
<path d="M328.051 819.348H262.641V869.869H328.051V819.348Z" stroke="#D1D1D1" stroke-opacity="0.04" stroke-width="1.48016"/>
<path d="M393.465 819.348H328.055V869.869H393.465V819.348Z" stroke="#D1D1D1" stroke-opacity="0.04" stroke-width="1.48016"/>
<path d="M458.872 819.348H393.461V869.869H458.872V819.348Z" stroke="#D1D1D1" stroke-opacity="0.04" stroke-width="1.48016"/>
<path d="M524.286 819.348H458.875V869.869H524.286V819.348Z" stroke="#D1D1D1" stroke-opacity="0.04" stroke-width="1.48016"/>
<path d="M589.692 819.348H524.281V869.869H589.692V819.348Z" stroke="#D1D1D1" stroke-opacity="0.04" stroke-width="1.48016"/>
<path d="M655.106 819.348H589.695V869.869H655.106V819.348Z" stroke="#D1D1D1" stroke-opacity="0.04" stroke-width="1.48016"/>
<path d="M720.52 819.348H655.109V869.869H720.52V819.348Z" stroke="#D1D1D1" stroke-opacity="0.04" stroke-width="1.48016"/>
<path d="M66.4107 869.867H1V920.388H66.4107V869.867Z" stroke="#D1D1D1" stroke-opacity="0.04" stroke-width="1.48016"/>
<path d="M131.817 869.867H66.4062V920.388H131.817V869.867Z" stroke="#D1D1D1" stroke-opacity="0.04" stroke-width="1.48016"/>
<path d="M197.239 869.867H131.828V920.388H197.239V869.867Z" stroke="#D1D1D1" stroke-opacity="0.04" stroke-width="1.48016"/>
<path d="M262.637 869.867H197.227V920.388H262.637V869.867Z" stroke="#D1D1D1" stroke-opacity="0.04" stroke-width="1.48016"/>
<path d="M328.051 869.867H262.641V920.388H328.051V869.867Z" stroke="#D1D1D1" stroke-opacity="0.04" stroke-width="1.48016"/>
<path d="M393.465 869.867H328.055V920.388H393.465V869.867Z" stroke="#D1D1D1" stroke-opacity="0.04" stroke-width="1.48016"/>
<path d="M458.872 869.867H393.461V920.388H458.872V869.867Z" stroke="#D1D1D1" stroke-opacity="0.04" stroke-width="1.48016"/>
<path d="M524.286 869.867H458.875V920.388H524.286V869.867Z" stroke="#D1D1D1" stroke-opacity="0.04" stroke-width="1.48016"/>
<path d="M589.692 869.867H524.281V920.388H589.692V869.867Z" stroke="#D1D1D1" stroke-opacity="0.04" stroke-width="1.48016"/>
<path d="M655.106 869.867H589.695V920.388H655.106V869.867Z" stroke="#D1D1D1" stroke-opacity="0.04" stroke-width="1.48016"/>
<path d="M720.52 869.867H655.109V920.388H720.52V869.867Z" stroke="#D1D1D1" stroke-opacity="0.04" stroke-width="1.48016"/>
<path d="M66.4107 920.387H1V970.908H66.4107V920.387Z" stroke="#D1D1D1" stroke-opacity="0.04" stroke-width="1.48016"/>
<path d="M131.817 920.387H66.4062V970.908H131.817V920.387Z" stroke="#D1D1D1" stroke-opacity="0.04" stroke-width="1.48016"/>
<path d="M197.239 920.387H131.828V970.908H197.239V920.387Z" stroke="#D1D1D1" stroke-opacity="0.04" stroke-width="1.48016"/>
<path d="M262.637 920.387H197.227V970.908H262.637V920.387Z" stroke="#D1D1D1" stroke-opacity="0.04" stroke-width="1.48016"/>
<path d="M328.051 920.387H262.641V970.908H328.051V920.387Z" stroke="#D1D1D1" stroke-opacity="0.04" stroke-width="1.48016"/>
<path d="M393.465 920.387H328.055V970.908H393.465V920.387Z" stroke="#D1D1D1" stroke-opacity="0.04" stroke-width="1.48016"/>
<path d="M458.872 920.387H393.461V970.908H458.872V920.387Z" stroke="#D1D1D1" stroke-opacity="0.04" stroke-width="1.48016"/>
<path d="M524.286 920.387H458.875V970.908H524.286V920.387Z" stroke="#D1D1D1" stroke-opacity="0.04" stroke-width="1.48016"/>
<path d="M589.692 920.387H524.281V970.908H589.692V920.387Z" stroke="#D1D1D1" stroke-opacity="0.04" stroke-width="1.48016"/>
<path d="M655.106 920.387H589.695V970.908H655.106V920.387Z" stroke="#D1D1D1" stroke-opacity="0.04" stroke-width="1.48016"/>
<path d="M720.52 920.387H655.109V970.908H720.52V920.387Z" stroke="#D1D1D1" stroke-opacity="0.04" stroke-width="1.48016"/>
<path d="M66.4107 970.91H1V1021.43H66.4107V970.91Z" stroke="#D1D1D1" stroke-opacity="0.04" stroke-width="1.48016"/>
<path d="M131.825 970.91H66.4141V1021.43H131.825V970.91Z" stroke="#D1D1D1" stroke-opacity="0.04" stroke-width="1.48016"/>
<path d="M197.239 970.91H131.828V1021.43H197.239V970.91Z" stroke="#D1D1D1" stroke-opacity="0.04" stroke-width="1.48016"/>
<path d="M262.645 970.91H197.234V1021.43H262.645V970.91Z" stroke="#D1D1D1" stroke-opacity="0.04" stroke-width="1.48016"/>
<path d="M328.051 970.91H262.641V1021.43H328.051V970.91Z" stroke="#D1D1D1" stroke-opacity="0.04" stroke-width="1.48016"/>
<path d="M393.465 970.91H328.055V1021.43H393.465V970.91Z" stroke="#D1D1D1" stroke-opacity="0.04" stroke-width="1.48016"/>
<path d="M458.872 970.91H393.461V1021.43H458.872V970.91Z" stroke="#D1D1D1" stroke-opacity="0.04" stroke-width="1.48016"/>
<path d="M524.286 970.91H458.875V1021.43H524.286V970.91Z" stroke="#D1D1D1" stroke-opacity="0.04" stroke-width="1.48016"/>
<path d="M589.692 970.91H524.281V1021.43H589.692V970.91Z" stroke="#D1D1D1" stroke-opacity="0.04" stroke-width="1.48016"/>
<path d="M655.106 970.91H589.695V1021.43H655.106V970.91Z" stroke="#D1D1D1" stroke-opacity="0.04" stroke-width="1.48016"/>
<path d="M720.52 970.91H655.109V1021.43H720.52V970.91Z" stroke="#D1D1D1" stroke-opacity="0.04" stroke-width="1.48016"/>
<path d="M66.4107 1021.43H1V1071.95H66.4107V1021.43Z" stroke="#D1D1D1" stroke-opacity="0.04" stroke-width="1.48016"/>
<path d="M131.825 1021.43H66.4141V1071.95H131.825V1021.43Z" stroke="#D1D1D1" stroke-opacity="0.04" stroke-width="1.48016"/>
<path d="M197.239 1021.43H131.828V1071.95H197.239V1021.43Z" stroke="#D1D1D1" stroke-opacity="0.04" stroke-width="1.48016"/>
<path d="M262.645 1021.43H197.234V1071.95H262.645V1021.43Z" stroke="#D1D1D1" stroke-opacity="0.04" stroke-width="1.48016"/>
<path d="M328.051 1021.43H262.641V1071.95H328.051V1021.43Z" stroke="#D1D1D1" stroke-opacity="0.04" stroke-width="1.48016"/>
<path d="M393.465 1021.43H328.055V1071.95H393.465V1021.43Z" stroke="#D1D1D1" stroke-opacity="0.04" stroke-width="1.48016"/>
<path d="M458.872 1021.43H393.461V1071.95H458.872V1021.43Z" stroke="#D1D1D1" stroke-opacity="0.04" stroke-width="1.48016"/>
<path d="M524.286 1021.43H458.875V1071.95H524.286V1021.43Z" stroke="#D1D1D1" stroke-opacity="0.04" stroke-width="1.48016"/>
<path d="M589.692 1021.43H524.281V1071.95H589.692V1021.43Z" stroke="#D1D1D1" stroke-opacity="0.04" stroke-width="1.48016"/>
<path d="M655.106 1021.43H589.695V1071.95H655.106V1021.43Z" stroke="#D1D1D1" stroke-opacity="0.04" stroke-width="1.48016"/>
<path d="M720.52 1021.43H655.109V1071.95H720.52V1021.43Z" stroke="#D1D1D1" stroke-opacity="0.04" stroke-width="1.48016"/>
<path d="M66.4107 1071.95H1V1122.47H66.4107V1071.95Z" stroke="#D1D1D1" stroke-opacity="0.04" stroke-width="1.48016"/>
<path d="M131.825 1071.95H66.4141V1122.47H131.825V1071.95Z" stroke="#D1D1D1" stroke-opacity="0.04" stroke-width="1.48016"/>
<path d="M197.239 1071.95H131.828V1122.47H197.239V1071.95Z" stroke="#D1D1D1" stroke-opacity="0.04" stroke-width="1.48016"/>
<path d="M262.645 1071.95H197.234V1122.47H262.645V1071.95Z" stroke="#D1D1D1" stroke-opacity="0.04" stroke-width="1.48016"/>
<path d="M328.051 1071.95H262.641V1122.47H328.051V1071.95Z" stroke="#D1D1D1" stroke-opacity="0.04" stroke-width="1.48016"/>
<path d="M393.465 1071.95H328.055V1122.47H393.465V1071.95Z" stroke="#D1D1D1" stroke-opacity="0.04" stroke-width="1.48016"/>
<path d="M458.872 1071.95H393.461V1122.47H458.872V1071.95Z" stroke="#D1D1D1" stroke-opacity="0.04" stroke-width="1.48016"/>
<path d="M524.286 1071.95H458.875V1122.47H524.286V1071.95Z" stroke="#D1D1D1" stroke-opacity="0.04" stroke-width="1.48016"/>
<path d="M589.692 1071.95H524.281V1122.47H589.692V1071.95Z" stroke="#D1D1D1" stroke-opacity="0.04" stroke-width="1.48016"/>
<path d="M655.106 1071.95H589.695V1122.47H655.106V1071.95Z" stroke="#D1D1D1" stroke-opacity="0.04" stroke-width="1.48016"/>
<path d="M786.919 10.2031H721.508V60.7241H786.919V10.2031Z" stroke="#D1D1D1" stroke-opacity="0.04" stroke-width="1.48016"/>
<path d="M852.333 10.2031H786.922V60.7241H852.333V10.2031Z" stroke="#D1D1D1" stroke-opacity="0.04" stroke-width="1.48016"/>
<path d="M917.747 10.2031H852.336V60.7241H917.747V10.2031Z" stroke="#D1D1D1" stroke-opacity="0.04" stroke-width="1.48016"/>
<path d="M983.153 10.2031H917.742V60.7241H983.153V10.2031Z" stroke="#D1D1D1" stroke-opacity="0.04" stroke-width="1.48016"/>
<path d="M1048.56 10.2031H983.148V60.7241H1048.56V10.2031Z" stroke="#D1D1D1" stroke-opacity="0.04" stroke-width="1.48016"/>
<path d="M1113.97 10.2031H1048.56V60.7241H1113.97V10.2031Z" stroke="#D1D1D1" stroke-opacity="0.04" stroke-width="1.48016"/>
<path d="M1179.38 10.2031H1113.97V60.7241H1179.38V10.2031Z" stroke="#D1D1D1" stroke-opacity="0.04" stroke-width="1.48016"/>
<path d="M1244.79 10.2031H1179.38V60.7241H1244.79V10.2031Z" stroke="#D1D1D1" stroke-opacity="0.04" stroke-width="1.48016"/>
<path d="M1310.2 10.2031H1244.79V60.7241H1310.2V10.2031Z" stroke="#D1D1D1" stroke-opacity="0.04" stroke-width="1.48016"/>
<path d="M1375.61 10.2031H1310.2V60.7241H1375.61V10.2031Z" stroke="#D1D1D1" stroke-opacity="0.04" stroke-width="1.48016"/>
<path d="M1441.03 10.2031H1375.62V60.7241H1441.03V10.2031Z" stroke="#D1D1D1" stroke-opacity="0.04" stroke-width="1.48016"/>
<path d="M786.919 60.7266H721.508V111.248H786.919V60.7266Z" stroke="#D1D1D1" stroke-opacity="0.04" stroke-width="1.48016"/>
<path d="M852.325 60.7266H786.914V111.248H852.325V60.7266Z" stroke="#D1D1D1" stroke-opacity="0.04" stroke-width="1.48016"/>
<path d="M917.747 60.7266H852.336V111.248H917.747V60.7266Z" stroke="#D1D1D1" stroke-opacity="0.04" stroke-width="1.48016"/>
<path d="M983.145 60.7266H917.734V111.248H983.145V60.7266Z" stroke="#D1D1D1" stroke-opacity="0.04" stroke-width="1.48016"/>
<path d="M1048.56 60.7266H983.148V111.248H1048.56V60.7266Z" stroke="#D1D1D1" stroke-opacity="0.04" stroke-width="1.48016"/>
<path d="M1113.97 60.7266H1048.56V111.248H1113.97V60.7266Z" stroke="#D1D1D1" stroke-opacity="0.04" stroke-width="1.48016"/>
<path d="M1179.38 60.7266H1113.97V111.248H1179.38V60.7266Z" stroke="#D1D1D1" stroke-opacity="0.04" stroke-width="1.48016"/>
<path d="M1244.79 60.7266H1179.38V111.248H1244.79V60.7266Z" stroke="#D1D1D1" stroke-opacity="0.04" stroke-width="1.48016"/>
<path d="M1310.2 60.7266H1244.79V111.248H1310.2V60.7266Z" stroke="#D1D1D1" stroke-opacity="0.04" stroke-width="1.48016"/>
<path d="M1375.61 60.7266H1310.2V111.248H1375.61V60.7266Z" stroke="#D1D1D1" stroke-opacity="0.04" stroke-width="1.48016"/>
<path d="M1441.03 60.7266H1375.62V111.248H1441.03V60.7266Z" stroke="#D1D1D1" stroke-opacity="0.04" stroke-width="1.48016"/>
<path d="M786.919 111.246H721.508V161.767H786.919V111.246Z" stroke="#D1D1D1" stroke-opacity="0.04" stroke-width="1.48016"/>
<path d="M852.333 111.246H786.922V161.767H852.333V111.246Z" stroke="#D1D1D1" stroke-opacity="0.04" stroke-width="1.48016"/>
<path d="M917.747 111.246H852.336V161.767H917.747V111.246Z" stroke="#D1D1D1" stroke-opacity="0.04" stroke-width="1.48016"/>
<path d="M983.153 111.246H917.742V161.767H983.153V111.246Z" stroke="#D1D1D1" stroke-opacity="0.04" stroke-width="1.48016"/>
<path d="M1048.56 111.246H983.148V161.767H1048.56V111.246Z" stroke="#D1D1D1" stroke-opacity="0.04" stroke-width="1.48016"/>
<path d="M1113.97 111.246H1048.56V161.767H1113.97V111.246Z" stroke="#D1D1D1" stroke-opacity="0.04" stroke-width="1.48016"/>
<path d="M1179.38 111.246H1113.97V161.767H1179.38V111.246Z" stroke="#D1D1D1" stroke-opacity="0.04" stroke-width="1.48016"/>
<path d="M1244.79 111.246H1179.38V161.767H1244.79V111.246Z" stroke="#D1D1D1" stroke-opacity="0.04" stroke-width="1.48016"/>
<path d="M1310.2 111.246H1244.79V161.767H1310.2V111.246Z" stroke="#D1D1D1" stroke-opacity="0.04" stroke-width="1.48016"/>
<path d="M1375.61 111.246H1310.2V161.767H1375.61V111.246Z" stroke="#D1D1D1" stroke-opacity="0.04" stroke-width="1.48016"/>
<path d="M1441.03 111.246H1375.62V161.767H1441.03V111.246Z" stroke="#D1D1D1" stroke-opacity="0.04" stroke-width="1.48016"/>
<path d="M786.919 161.766H721.508V212.287H786.919V161.766Z" stroke="#D1D1D1" stroke-opacity="0.04" stroke-width="1.48016"/>
<path d="M852.325 161.766H786.914V212.287H852.325V161.766Z" stroke="#D1D1D1" stroke-opacity="0.04" stroke-width="1.48016"/>
<path d="M917.747 161.766H852.336V212.287H917.747V161.766Z" stroke="#D1D1D1" stroke-opacity="0.04" stroke-width="1.48016"/>
<path d="M983.145 161.766H917.734V212.287H983.145V161.766Z" stroke="#D1D1D1" stroke-opacity="0.04" stroke-width="1.48016"/>
<path d="M1048.56 161.766H983.148V212.287H1048.56V161.766Z" stroke="#D1D1D1" stroke-opacity="0.04" stroke-width="1.48016"/>
<path d="M1113.97 161.766H1048.56V212.287H1113.97V161.766Z" stroke="#D1D1D1" stroke-opacity="0.04" stroke-width="1.48016"/>
<path d="M1179.38 161.766H1113.97V212.287H1179.38V161.766Z" stroke="#D1D1D1" stroke-opacity="0.04" stroke-width="1.48016"/>
<path d="M1244.79 161.766H1179.38V212.287H1244.79V161.766Z" stroke="#D1D1D1" stroke-opacity="0.04" stroke-width="1.48016"/>
<path d="M1310.2 161.766H1244.79V212.287H1310.2V161.766Z" stroke="#D1D1D1" stroke-opacity="0.04" stroke-width="1.48016"/>
<path d="M1375.61 161.766H1310.2V212.287H1375.61V161.766Z" stroke="#D1D1D1" stroke-opacity="0.04" stroke-width="1.48016"/>
<path d="M1441.03 161.766H1375.62V212.287H1441.03V161.766Z" stroke="#D1D1D1" stroke-opacity="0.04" stroke-width="1.48016"/>
<path d="M786.919 212.289H721.508V262.81H786.919V212.289Z" stroke="#D1D1D1" stroke-opacity="0.04" stroke-width="1.48016"/>
<path d="M852.333 212.289H786.922V262.81H852.333V212.289Z" stroke="#D1D1D1" stroke-opacity="0.04" stroke-width="1.48016"/>
<path d="M917.747 212.289H852.336V262.81H917.747V212.289Z" stroke="#D1D1D1" stroke-opacity="0.04" stroke-width="1.48016"/>
<path d="M983.153 212.289H917.742V262.81H983.153V212.289Z" stroke="#D1D1D1" stroke-opacity="0.04" stroke-width="1.48016"/>
<path d="M1048.56 212.289H983.148V262.81H1048.56V212.289Z" stroke="#D1D1D1" stroke-opacity="0.04" stroke-width="1.48016"/>
<path d="M1113.97 212.289H1048.56V262.81H1113.97V212.289Z" stroke="#D1D1D1" stroke-opacity="0.04" stroke-width="1.48016"/>
<path d="M1179.38 212.289H1113.97V262.81H1179.38V212.289Z" stroke="#D1D1D1" stroke-opacity="0.04" stroke-width="1.48016"/>
<path d="M1244.79 212.289H1179.38V262.81H1244.79V212.289Z" stroke="#D1D1D1" stroke-opacity="0.04" stroke-width="1.48016"/>
<path d="M1310.2 212.289H1244.79V262.81H1310.2V212.289Z" stroke="#D1D1D1" stroke-opacity="0.04" stroke-width="1.48016"/>
<path d="M1375.61 212.289H1310.2V262.81H1375.61V212.289Z" stroke="#D1D1D1" stroke-opacity="0.04" stroke-width="1.48016"/>
<path d="M1441.03 212.289H1375.62V262.81H1441.03V212.289Z" stroke="#D1D1D1" stroke-opacity="0.04" stroke-width="1.48016"/>
<path d="M786.919 262.809H721.508V313.33H786.919V262.809Z" stroke="#D1D1D1" stroke-opacity="0.04" stroke-width="1.48016"/>
<path d="M852.325 262.809H786.914V313.33H852.325V262.809Z" stroke="#D1D1D1" stroke-opacity="0.04" stroke-width="1.48016"/>
<path d="M917.747 262.809H852.336V313.33H917.747V262.809Z" stroke="#D1D1D1" stroke-opacity="0.04" stroke-width="1.48016"/>
<path d="M983.145 262.809H917.734V313.33H983.145V262.809Z" stroke="#D1D1D1" stroke-opacity="0.04" stroke-width="1.48016"/>
<path d="M1048.56 262.809H983.148V313.33H1048.56V262.809Z" stroke="#D1D1D1" stroke-opacity="0.04" stroke-width="1.48016"/>
<path d="M1113.97 262.809H1048.56V313.33H1113.97V262.809Z" stroke="#D1D1D1" stroke-opacity="0.04" stroke-width="1.48016"/>
<path d="M1179.38 262.809H1113.97V313.33H1179.38V262.809Z" stroke="#D1D1D1" stroke-opacity="0.04" stroke-width="1.48016"/>
<path d="M1244.79 262.809H1179.38V313.33H1244.79V262.809Z" stroke="#D1D1D1" stroke-opacity="0.04" stroke-width="1.48016"/>
<path d="M1310.2 262.809H1244.79V313.33H1310.2V262.809Z" stroke="#D1D1D1" stroke-opacity="0.04" stroke-width="1.48016"/>
<path d="M1375.61 262.809H1310.2V313.33H1375.61V262.809Z" stroke="#D1D1D1" stroke-opacity="0.04" stroke-width="1.48016"/>
<path d="M1441.03 262.809H1375.62V313.33H1441.03V262.809Z" stroke="#D1D1D1" stroke-opacity="0.04" stroke-width="1.48016"/>
<path d="M786.919 313.328H721.508V363.849H786.919V313.328Z" stroke="#D1D1D1" stroke-opacity="0.04" stroke-width="1.48016"/>
<path d="M852.325 313.328H786.914V363.849H852.325V313.328Z" stroke="#D1D1D1" stroke-opacity="0.04" stroke-width="1.48016"/>
<path d="M917.747 313.328H852.336V363.849H917.747V313.328Z" stroke="#D1D1D1" stroke-opacity="0.04" stroke-width="1.48016"/>
<path d="M983.145 313.328H917.734V363.849H983.145V313.328Z" stroke="#D1D1D1" stroke-opacity="0.04" stroke-width="1.48016"/>
<path d="M1048.56 313.328H983.148V363.849H1048.56V313.328Z" stroke="#D1D1D1" stroke-opacity="0.04" stroke-width="1.48016"/>
<path d="M1113.97 313.328H1048.56V363.849H1113.97V313.328Z" stroke="#D1D1D1" stroke-opacity="0.04" stroke-width="1.48016"/>
<path d="M1179.38 313.328H1113.97V363.849H1179.38V313.328Z" stroke="#D1D1D1" stroke-opacity="0.04" stroke-width="1.48016"/>
<path d="M1244.79 313.328H1179.38V363.849H1244.79V313.328Z" stroke="#D1D1D1" stroke-opacity="0.04" stroke-width="1.48016"/>
<path d="M1310.2 313.328H1244.79V363.849H1310.2V313.328Z" stroke="#D1D1D1" stroke-opacity="0.04" stroke-width="1.48016"/>
<path d="M1375.61 313.328H1310.2V363.849H1375.61V313.328Z" stroke="#D1D1D1" stroke-opacity="0.04" stroke-width="1.48016"/>
<path d="M1441.03 313.328H1375.62V363.849H1441.03V313.328Z" stroke="#D1D1D1" stroke-opacity="0.04" stroke-width="1.48016"/>
<path d="M786.919 363.848H721.508V414.369H786.919V363.848Z" stroke="#D1D1D1" stroke-opacity="0.04" stroke-width="1.48016"/>
<path d="M852.325 363.848H786.914V414.369H852.325V363.848Z" stroke="#D1D1D1" stroke-opacity="0.04" stroke-width="1.48016"/>
<path d="M917.747 363.848H852.336V414.369H917.747V363.848Z" stroke="#D1D1D1" stroke-opacity="0.04" stroke-width="1.48016"/>
<path d="M983.145 363.848H917.734V414.369H983.145V363.848Z" stroke="#D1D1D1" stroke-opacity="0.04" stroke-width="1.48016"/>
<path d="M1048.56 363.848H983.148V414.369H1048.56V363.848Z" stroke="#D1D1D1" stroke-opacity="0.04" stroke-width="1.48016"/>
<path d="M1113.97 363.848H1048.56V414.369H1113.97V363.848Z" stroke="#D1D1D1" stroke-opacity="0.04" stroke-width="1.48016"/>
<path d="M1179.38 363.848H1113.97V414.369H1179.38V363.848Z" stroke="#D1D1D1" stroke-opacity="0.04" stroke-width="1.48016"/>
<path d="M1244.79 363.848H1179.38V414.369H1244.79V363.848Z" stroke="#D1D1D1" stroke-opacity="0.04" stroke-width="1.48016"/>
<path d="M1310.2 363.848H1244.79V414.369H1310.2V363.848Z" stroke="#D1D1D1" stroke-opacity="0.04" stroke-width="1.48016"/>
<path d="M1375.61 363.848H1310.2V414.369H1375.61V363.848Z" stroke="#D1D1D1" stroke-opacity="0.04" stroke-width="1.48016"/>
<path d="M1441.03 363.848H1375.62V414.369H1441.03V363.848Z" stroke="#D1D1D1" stroke-opacity="0.04" stroke-width="1.48016"/>
<path d="M786.919 414.371H721.508V464.892H786.919V414.371Z" stroke="#D1D1D1" stroke-opacity="0.04" stroke-width="1.48016"/>
<path d="M852.333 414.371H786.922V464.892H852.333V414.371Z" stroke="#D1D1D1" stroke-opacity="0.04" stroke-width="1.48016"/>
<path d="M917.747 414.371H852.336V464.892H917.747V414.371Z" stroke="#D1D1D1" stroke-opacity="0.04" stroke-width="1.48016"/>
<path d="M983.153 414.371H917.742V464.892H983.153V414.371Z" stroke="#D1D1D1" stroke-opacity="0.04" stroke-width="1.48016"/>
<path d="M1048.56 414.371H983.148V464.892H1048.56V414.371Z" stroke="#D1D1D1" stroke-opacity="0.04" stroke-width="1.48016"/>
<path d="M1113.97 414.371H1048.56V464.892H1113.97V414.371Z" stroke="#D1D1D1" stroke-opacity="0.04" stroke-width="1.48016"/>
<path d="M1179.38 414.371H1113.97V464.892H1179.38V414.371Z" stroke="#D1D1D1" stroke-opacity="0.04" stroke-width="1.48016"/>
<path d="M1244.79 414.371H1179.38V464.892H1244.79V414.371Z" stroke="#D1D1D1" stroke-opacity="0.04" stroke-width="1.48016"/>
<path d="M1310.2 414.371H1244.79V464.892H1310.2V414.371Z" stroke="#D1D1D1" stroke-opacity="0.04" stroke-width="1.48016"/>
<path d="M1375.61 414.371H1310.2V464.892H1375.61V414.371Z" stroke="#D1D1D1" stroke-opacity="0.04" stroke-width="1.48016"/>
<path d="M1441.03 414.371H1375.62V464.892H1441.03V414.371Z" stroke="#D1D1D1" stroke-opacity="0.04" stroke-width="1.48016"/>
<path d="M786.919 464.891H721.508V515.412H786.919V464.891Z" stroke="#D1D1D1" stroke-opacity="0.04" stroke-width="1.48016"/>
<path d="M852.333 464.891H786.922V515.412H852.333V464.891Z" stroke="#D1D1D1" stroke-opacity="0.04" stroke-width="1.48016"/>
<path d="M917.747 464.891H852.336V515.412H917.747V464.891Z" stroke="#D1D1D1" stroke-opacity="0.04" stroke-width="1.48016"/>
<path d="M983.153 464.891H917.742V515.412H983.153V464.891Z" stroke="#D1D1D1" stroke-opacity="0.04" stroke-width="1.48016"/>
<path d="M1048.56 464.891H983.148V515.412H1048.56V464.891Z" stroke="#D1D1D1" stroke-opacity="0.04" stroke-width="1.48016"/>
<path d="M1113.97 464.891H1048.56V515.412H1113.97V464.891Z" stroke="#D1D1D1" stroke-opacity="0.04" stroke-width="1.48016"/>
<path d="M1179.38 464.891H1113.97V515.412H1179.38V464.891Z" stroke="#D1D1D1" stroke-opacity="0.04" stroke-width="1.48016"/>
<path d="M1244.79 464.891H1179.38V515.412H1244.79V464.891Z" stroke="#D1D1D1" stroke-opacity="0.04" stroke-width="1.48016"/>
<path d="M1310.2 464.891H1244.79V515.412H1310.2V464.891Z" stroke="#D1D1D1" stroke-opacity="0.04" stroke-width="1.48016"/>
<path d="M1375.61 464.891H1310.2V515.412H1375.61V464.891Z" stroke="#D1D1D1" stroke-opacity="0.04" stroke-width="1.48016"/>
<path d="M1441.03 464.891H1375.62V515.412H1441.03V464.891Z" stroke="#D1D1D1" stroke-opacity="0.04" stroke-width="1.48016"/>
<path d="M786.919 515.414H721.508V565.935H786.919V515.414Z" stroke="#D1D1D1" stroke-opacity="0.04" stroke-width="1.48016"/>
<path d="M852.333 515.414H786.922V565.935H852.333V515.414Z" stroke="#D1D1D1" stroke-opacity="0.04" stroke-width="1.48016"/>
<path d="M917.747 515.414H852.336V565.935H917.747V515.414Z" stroke="#D1D1D1" stroke-opacity="0.04" stroke-width="1.48016"/>
<path d="M983.153 515.414H917.742V565.935H983.153V515.414Z" stroke="#D1D1D1" stroke-opacity="0.04" stroke-width="1.48016"/>
<path d="M1048.56 515.414H983.148V565.935H1048.56V515.414Z" stroke="#D1D1D1" stroke-opacity="0.04" stroke-width="1.48016"/>
<path d="M1113.97 515.414H1048.56V565.935H1113.97V515.414Z" stroke="#D1D1D1" stroke-opacity="0.04" stroke-width="1.48016"/>
<path d="M1179.38 515.414H1113.97V565.935H1179.38V515.414Z" stroke="#D1D1D1" stroke-opacity="0.04" stroke-width="1.48016"/>
<path d="M1244.79 515.414H1179.38V565.935H1244.79V515.414Z" stroke="#D1D1D1" stroke-opacity="0.04" stroke-width="1.48016"/>
<path d="M1310.2 515.414H1244.79V565.935H1310.2V515.414Z" stroke="#D1D1D1" stroke-opacity="0.04" stroke-width="1.48016"/>
<path d="M1375.61 515.414H1310.2V565.935H1375.61V515.414Z" stroke="#D1D1D1" stroke-opacity="0.04" stroke-width="1.48016"/>
<path d="M786.919 566.742H721.508V617.263H786.919V566.742Z" stroke="#D1D1D1" stroke-opacity="0.04" stroke-width="1.48016"/>
<path d="M852.333 566.742H786.922V617.263H852.333V566.742Z" stroke="#D1D1D1" stroke-opacity="0.04" stroke-width="1.48016"/>
<path d="M917.747 566.742H852.336V617.263H917.747V566.742Z" stroke="#D1D1D1" stroke-opacity="0.04" stroke-width="1.48016"/>
<path d="M983.153 566.742H917.742V617.263H983.153V566.742Z" stroke="#D1D1D1" stroke-opacity="0.04" stroke-width="1.48016"/>
<path d="M1048.56 566.742H983.148V617.263H1048.56V566.742Z" stroke="#D1D1D1" stroke-opacity="0.04" stroke-width="1.48016"/>
<path d="M1113.97 566.742H1048.56V617.263H1113.97V566.742Z" stroke="#D1D1D1" stroke-opacity="0.04" stroke-width="1.48016"/>
<path d="M1179.38 566.742H1113.97V617.263H1179.38V566.742Z" stroke="#D1D1D1" stroke-opacity="0.04" stroke-width="1.48016"/>
<path d="M1244.79 566.742H1179.38V617.263H1244.79V566.742Z" stroke="#D1D1D1" stroke-opacity="0.04" stroke-width="1.48016"/>
<path d="M1310.2 566.742H1244.79V617.263H1310.2V566.742Z" stroke="#D1D1D1" stroke-opacity="0.04" stroke-width="1.48016"/>
<path d="M1375.61 566.742H1310.2V617.263H1375.61V566.742Z" stroke="#D1D1D1" stroke-opacity="0.04" stroke-width="1.48016"/>
<path d="M1441.03 566.742H1375.62V617.263H1441.03V566.742Z" stroke="#D1D1D1" stroke-opacity="0.04" stroke-width="1.48016"/>
<path d="M786.919 617.266H721.508V667.787H786.919V617.266Z" stroke="#D1D1D1" stroke-opacity="0.04" stroke-width="1.48016"/>
<path d="M852.325 617.266H786.914V667.787H852.325V617.266Z" stroke="#D1D1D1" stroke-opacity="0.04" stroke-width="1.48016"/>
<path d="M917.747 617.266H852.336V667.787H917.747V617.266Z" stroke="#D1D1D1" stroke-opacity="0.04" stroke-width="1.48016"/>
<path d="M983.145 617.266H917.734V667.787H983.145V617.266Z" stroke="#D1D1D1" stroke-opacity="0.04" stroke-width="1.48016"/>
<path d="M1048.56 617.266H983.148V667.787H1048.56V617.266Z" stroke="#D1D1D1" stroke-opacity="0.04" stroke-width="1.48016"/>
<path d="M1113.97 617.266H1048.56V667.787H1113.97V617.266Z" stroke="#D1D1D1" stroke-opacity="0.04" stroke-width="1.48016"/>
<path d="M1179.38 617.266H1113.97V667.787H1179.38V617.266Z" stroke="#D1D1D1" stroke-opacity="0.04" stroke-width="1.48016"/>
<path d="M1244.79 617.266H1179.38V667.787H1244.79V617.266Z" stroke="#D1D1D1" stroke-opacity="0.04" stroke-width="1.48016"/>
<path d="M1310.2 617.266H1244.79V667.787H1310.2V617.266Z" stroke="#D1D1D1" stroke-opacity="0.04" stroke-width="1.48016"/>
<path d="M1375.61 617.266H1310.2V667.787H1375.61V617.266Z" stroke="#D1D1D1" stroke-opacity="0.04" stroke-width="1.48016"/>
<path d="M1441.03 617.266H1375.62V667.787H1441.03V617.266Z" stroke="#D1D1D1" stroke-opacity="0.04" stroke-width="1.48016"/>
<path d="M786.919 667.785H721.508V718.306H786.919V667.785Z" stroke="#D1D1D1" stroke-opacity="0.04" stroke-width="1.48016"/>
<path d="M852.333 667.785H786.922V718.306H852.333V667.785Z" stroke="#D1D1D1" stroke-opacity="0.04" stroke-width="1.48016"/>
<path d="M917.747 667.785H852.336V718.306H917.747V667.785Z" stroke="#D1D1D1" stroke-opacity="0.04" stroke-width="1.48016"/>
<path d="M983.153 667.785H917.742V718.306H983.153V667.785Z" stroke="#D1D1D1" stroke-opacity="0.04" stroke-width="1.48016"/>
<path d="M1048.56 667.785H983.148V718.306H1048.56V667.785Z" stroke="#D1D1D1" stroke-opacity="0.04" stroke-width="1.48016"/>
<path d="M1113.97 667.785H1048.56V718.306H1113.97V667.785Z" stroke="#D1D1D1" stroke-opacity="0.04" stroke-width="1.48016"/>
<path d="M1179.38 667.785H1113.97V718.306H1179.38V667.785Z" stroke="#D1D1D1" stroke-opacity="0.04" stroke-width="1.48016"/>
<path d="M1244.79 667.785H1179.38V718.306H1244.79V667.785Z" stroke="#D1D1D1" stroke-opacity="0.04" stroke-width="1.48016"/>
<path d="M1310.2 667.785H1244.79V718.306H1310.2V667.785Z" stroke="#D1D1D1" stroke-opacity="0.04" stroke-width="1.48016"/>
<path d="M1375.61 667.785H1310.2V718.306H1375.61V667.785Z" stroke="#D1D1D1" stroke-opacity="0.04" stroke-width="1.48016"/>
<path d="M1441.03 667.785H1375.62V718.306H1441.03V667.785Z" stroke="#D1D1D1" stroke-opacity="0.04" stroke-width="1.48016"/>
<path d="M786.919 718.305H721.508V768.826H786.919V718.305Z" stroke="#D1D1D1" stroke-opacity="0.04" stroke-width="1.48016"/>
<path d="M852.325 718.305H786.914V768.826H852.325V718.305Z" stroke="#D1D1D1" stroke-opacity="0.04" stroke-width="1.48016"/>
<path d="M917.747 718.305H852.336V768.826H917.747V718.305Z" stroke="#D1D1D1" stroke-opacity="0.04" stroke-width="1.48016"/>
<path d="M983.145 718.305H917.734V768.826H983.145V718.305Z" stroke="#D1D1D1" stroke-opacity="0.04" stroke-width="1.48016"/>
<path d="M1048.56 718.305H983.148V768.826H1048.56V718.305Z" stroke="#D1D1D1" stroke-opacity="0.04" stroke-width="1.48016"/>
<path d="M1113.97 718.305H1048.56V768.826H1113.97V718.305Z" stroke="#D1D1D1" stroke-opacity="0.04" stroke-width="1.48016"/>
<path d="M1179.38 718.305H1113.97V768.826H1179.38V718.305Z" stroke="#D1D1D1" stroke-opacity="0.04" stroke-width="1.48016"/>
<path d="M1244.79 718.305H1179.38V768.826H1244.79V718.305Z" stroke="#D1D1D1" stroke-opacity="0.04" stroke-width="1.48016"/>
<path d="M1310.2 718.305H1244.79V768.826H1310.2V718.305Z" stroke="#D1D1D1" stroke-opacity="0.04" stroke-width="1.48016"/>
<path d="M1375.61 718.305H1310.2V768.826H1375.61V718.305Z" stroke="#D1D1D1" stroke-opacity="0.04" stroke-width="1.48016"/>
<path d="M1441.03 718.305H1375.62V768.826H1441.03V718.305Z" stroke="#D1D1D1" stroke-opacity="0.04" stroke-width="1.48016"/>
<path d="M786.919 768.828H721.508V819.349H786.919V768.828Z" stroke="#D1D1D1" stroke-opacity="0.04" stroke-width="1.48016"/>
<path d="M852.333 768.828H786.922V819.349H852.333V768.828Z" stroke="#D1D1D1" stroke-opacity="0.04" stroke-width="1.48016"/>
<path d="M917.747 768.828H852.336V819.349H917.747V768.828Z" stroke="#D1D1D1" stroke-opacity="0.04" stroke-width="1.48016"/>
<path d="M983.153 768.828H917.742V819.349H983.153V768.828Z" stroke="#D1D1D1" stroke-opacity="0.04" stroke-width="1.48016"/>
<path d="M1048.56 768.828H983.148V819.349H1048.56V768.828Z" stroke="#D1D1D1" stroke-opacity="0.04" stroke-width="1.48016"/>
<path d="M1113.97 768.828H1048.56V819.349H1113.97V768.828Z" stroke="#D1D1D1" stroke-opacity="0.04" stroke-width="1.48016"/>
<path d="M1179.38 768.828H1113.97V819.349H1179.38V768.828Z" stroke="#D1D1D1" stroke-opacity="0.04" stroke-width="1.48016"/>
<path d="M1244.79 768.828H1179.38V819.349H1244.79V768.828Z" stroke="#D1D1D1" stroke-opacity="0.04" stroke-width="1.48016"/>
<path d="M1310.2 768.828H1244.79V819.349H1310.2V768.828Z" stroke="#D1D1D1" stroke-opacity="0.04" stroke-width="1.48016"/>
<path d="M1375.61 768.828H1310.2V819.349H1375.61V768.828Z" stroke="#D1D1D1" stroke-opacity="0.04" stroke-width="1.48016"/>
<path d="M1441.03 768.828H1375.62V819.349H1441.03V768.828Z" stroke="#D1D1D1" stroke-opacity="0.04" stroke-width="1.48016"/>
<path d="M786.919 819.348H721.508V869.869H786.919V819.348Z" stroke="#D1D1D1" stroke-opacity="0.04" stroke-width="1.48016"/>
<path d="M852.325 819.348H786.914V869.869H852.325V819.348Z" stroke="#D1D1D1" stroke-opacity="0.04" stroke-width="1.48016"/>
<path d="M917.747 819.348H852.336V869.869H917.747V819.348Z" stroke="#D1D1D1" stroke-opacity="0.04" stroke-width="1.48016"/>
<path d="M983.145 819.348H917.734V869.869H983.145V819.348Z" stroke="#D1D1D1" stroke-opacity="0.04" stroke-width="1.48016"/>
<path d="M1048.56 819.348H983.148V869.869H1048.56V819.348Z" stroke="#D1D1D1" stroke-opacity="0.04" stroke-width="1.48016"/>
<path d="M1113.97 819.348H1048.56V869.869H1113.97V819.348Z" stroke="#D1D1D1" stroke-opacity="0.04" stroke-width="1.48016"/>
<path d="M1179.38 819.348H1113.97V869.869H1179.38V819.348Z" stroke="#D1D1D1" stroke-opacity="0.04" stroke-width="1.48016"/>
<path d="M1244.79 819.348H1179.38V869.869H1244.79V819.348Z" stroke="#D1D1D1" stroke-opacity="0.04" stroke-width="1.48016"/>
<path d="M1310.2 819.348H1244.79V869.869H1310.2V819.348Z" stroke="#D1D1D1" stroke-opacity="0.04" stroke-width="1.48016"/>
<path d="M1375.61 819.348H1310.2V869.869H1375.61V819.348Z" stroke="#D1D1D1" stroke-opacity="0.04" stroke-width="1.48016"/>
<path d="M1441.03 819.348H1375.62V869.869H1441.03V819.348Z" stroke="#D1D1D1" stroke-opacity="0.04" stroke-width="1.48016"/>
<path d="M786.919 869.867H721.508V920.388H786.919V869.867Z" stroke="#D1D1D1" stroke-opacity="0.04" stroke-width="1.48016"/>
<path d="M852.325 869.867H786.914V920.388H852.325V869.867Z" stroke="#D1D1D1" stroke-opacity="0.04" stroke-width="1.48016"/>
<path d="M917.747 869.867H852.336V920.388H917.747V869.867Z" stroke="#D1D1D1" stroke-opacity="0.04" stroke-width="1.48016"/>
<path d="M983.145 869.867H917.734V920.388H983.145V869.867Z" stroke="#D1D1D1" stroke-opacity="0.04" stroke-width="1.48016"/>
<path d="M1048.56 869.867H983.148V920.388H1048.56V869.867Z" stroke="#D1D1D1" stroke-opacity="0.04" stroke-width="1.48016"/>
<path d="M1113.97 869.867H1048.56V920.388H1113.97V869.867Z" stroke="#D1D1D1" stroke-opacity="0.04" stroke-width="1.48016"/>
<path d="M1179.38 869.867H1113.97V920.388H1179.38V869.867Z" stroke="#D1D1D1" stroke-opacity="0.04" stroke-width="1.48016"/>
<path d="M1244.79 869.867H1179.38V920.388H1244.79V869.867Z" stroke="#D1D1D1" stroke-opacity="0.04" stroke-width="1.48016"/>
<path d="M1310.2 869.867H1244.79V920.388H1310.2V869.867Z" stroke="#D1D1D1" stroke-opacity="0.04" stroke-width="1.48016"/>
<path d="M1375.61 869.867H1310.2V920.388H1375.61V869.867Z" stroke="#D1D1D1" stroke-opacity="0.04" stroke-width="1.48016"/>
<path d="M1441.03 869.867H1375.62V920.388H1441.03V869.867Z" stroke="#D1D1D1" stroke-opacity="0.04" stroke-width="1.48016"/>
<path d="M786.919 920.387H721.508V970.908H786.919V920.387Z" stroke="#D1D1D1" stroke-opacity="0.04" stroke-width="1.48016"/>
<path d="M852.325 920.387H786.914V970.908H852.325V920.387Z" stroke="#D1D1D1" stroke-opacity="0.04" stroke-width="1.48016"/>
<path d="M917.747 920.387H852.336V970.908H917.747V920.387Z" stroke="#D1D1D1" stroke-opacity="0.04" stroke-width="1.48016"/>
<path d="M983.145 920.387H917.734V970.908H983.145V920.387Z" stroke="#D1D1D1" stroke-opacity="0.04" stroke-width="1.48016"/>
<path d="M1048.56 920.387H983.148V970.908H1048.56V920.387Z" stroke="#D1D1D1" stroke-opacity="0.04" stroke-width="1.48016"/>
<path d="M1113.97 920.387H1048.56V970.908H1113.97V920.387Z" stroke="#D1D1D1" stroke-opacity="0.04" stroke-width="1.48016"/>
<path d="M1179.38 920.387H1113.97V970.908H1179.38V920.387Z" stroke="#D1D1D1" stroke-opacity="0.04" stroke-width="1.48016"/>
<path d="M1244.79 920.387H1179.38V970.908H1244.79V920.387Z" stroke="#D1D1D1" stroke-opacity="0.04" stroke-width="1.48016"/>
<path d="M1310.2 920.387H1244.79V970.908H1310.2V920.387Z" stroke="#D1D1D1" stroke-opacity="0.04" stroke-width="1.48016"/>
<path d="M1375.61 920.387H1310.2V970.908H1375.61V920.387Z" stroke="#D1D1D1" stroke-opacity="0.04" stroke-width="1.48016"/>
<path d="M1441.03 920.387H1375.62V970.908H1441.03V920.387Z" stroke="#D1D1D1" stroke-opacity="0.04" stroke-width="1.48016"/>
<path d="M786.919 970.91H721.508V1021.43H786.919V970.91Z" stroke="#D1D1D1" stroke-opacity="0.04" stroke-width="1.48016"/>
<path d="M852.333 970.91H786.922V1021.43H852.333V970.91Z" stroke="#D1D1D1" stroke-opacity="0.04" stroke-width="1.48016"/>
<path d="M917.747 970.91H852.336V1021.43H917.747V970.91Z" stroke="#D1D1D1" stroke-opacity="0.04" stroke-width="1.48016"/>
<path d="M983.153 970.91H917.742V1021.43H983.153V970.91Z" stroke="#D1D1D1" stroke-opacity="0.04" stroke-width="1.48016"/>
<path d="M1048.56 970.91H983.148V1021.43H1048.56V970.91Z" stroke="#D1D1D1" stroke-opacity="0.04" stroke-width="1.48016"/>
<path d="M1113.97 970.91H1048.56V1021.43H1113.97V970.91Z" stroke="#D1D1D1" stroke-opacity="0.04" stroke-width="1.48016"/>
<path d="M1179.38 970.91H1113.97V1021.43H1179.38V970.91Z" stroke="#D1D1D1" stroke-opacity="0.04" stroke-width="1.48016"/>
<path d="M1244.79 970.91H1179.38V1021.43H1244.79V970.91Z" stroke="#D1D1D1" stroke-opacity="0.04" stroke-width="1.48016"/>
<path d="M1310.2 970.91H1244.79V1021.43H1310.2V970.91Z" stroke="#D1D1D1" stroke-opacity="0.04" stroke-width="1.48016"/>
<path d="M1375.61 970.91H1310.2V1021.43H1375.61V970.91Z" stroke="#D1D1D1" stroke-opacity="0.04" stroke-width="1.48016"/>
<path d="M1441.03 970.91H1375.62V1021.43H1441.03V970.91Z" stroke="#D1D1D1" stroke-opacity="0.04" stroke-width="1.48016"/>
<path d="M786.919 1021.43H721.508V1071.95H786.919V1021.43Z" stroke="#D1D1D1" stroke-opacity="0.04" stroke-width="1.48016"/>
<path d="M852.333 1021.43H786.922V1071.95H852.333V1021.43Z" stroke="#D1D1D1" stroke-opacity="0.04" stroke-width="1.48016"/>
<path d="M917.747 1021.43H852.336V1071.95H917.747V1021.43Z" stroke="#D1D1D1" stroke-opacity="0.04" stroke-width="1.48016"/>
<path d="M983.153 1021.43H917.742V1071.95H983.153V1021.43Z" stroke="#D1D1D1" stroke-opacity="0.04" stroke-width="1.48016"/>
<path d="M1048.56 1021.43H983.148V1071.95H1048.56V1021.43Z" stroke="#D1D1D1" stroke-opacity="0.04" stroke-width="1.48016"/>
<path d="M1113.97 1021.43H1048.56V1071.95H1113.97V1021.43Z" stroke="#D1D1D1" stroke-opacity="0.04" stroke-width="1.48016"/>
<path d="M1179.38 1021.43H1113.97V1071.95H1179.38V1021.43Z" stroke="#D1D1D1" stroke-opacity="0.04" stroke-width="1.48016"/>
<path d="M1244.79 1021.43H1179.38V1071.95H1244.79V1021.43Z" stroke="#D1D1D1" stroke-opacity="0.04" stroke-width="1.48016"/>
<path d="M1310.2 1021.43H1244.79V1071.95H1310.2V1021.43Z" stroke="#D1D1D1" stroke-opacity="0.04" stroke-width="1.48016"/>
<path d="M1375.61 1021.43H1310.2V1071.95H1375.61V1021.43Z" stroke="#D1D1D1" stroke-opacity="0.04" stroke-width="1.48016"/>
<path d="M1441.03 1021.43H1375.62V1071.95H1441.03V1021.43Z" stroke="#D1D1D1" stroke-opacity="0.04" stroke-width="1.48016"/>
<path d="M786.919 1071.95H721.508V1122.47H786.919V1071.95Z" stroke="#D1D1D1" stroke-opacity="0.04" stroke-width="1.48016"/>
<path d="M852.333 1071.95H786.922V1122.47H852.333V1071.95Z" stroke="#D1D1D1" stroke-opacity="0.04" stroke-width="1.48016"/>
<path d="M917.747 1071.95H852.336V1122.47H917.747V1071.95Z" stroke="#D1D1D1" stroke-opacity="0.04" stroke-width="1.48016"/>
<path d="M983.153 1071.95H917.742V1122.47H983.153V1071.95Z" stroke="#D1D1D1" stroke-opacity="0.04" stroke-width="1.48016"/>
<path d="M1048.56 1071.95H983.148V1122.47H1048.56V1071.95Z" stroke="#D1D1D1" stroke-opacity="0.04" stroke-width="1.48016"/>
<path d="M1113.97 1071.95H1048.56V1122.47H1113.97V1071.95Z" stroke="#D1D1D1" stroke-opacity="0.04" stroke-width="1.48016"/>
<path d="M1179.38 1071.95H1113.97V1122.47H1179.38V1071.95Z" stroke="#D1D1D1" stroke-opacity="0.04" stroke-width="1.48016"/>
<path d="M1244.79 1071.95H1179.38V1122.47H1244.79V1071.95Z" stroke="#D1D1D1" stroke-opacity="0.04" stroke-width="1.48016"/>
<path d="M1310.2 1071.95H1244.79V1122.47H1310.2V1071.95Z" stroke="#D1D1D1" stroke-opacity="0.04" stroke-width="1.48016"/>
<path d="M1375.61 1071.95H1310.2V1122.47H1375.61V1071.95Z" stroke="#D1D1D1" stroke-opacity="0.04" stroke-width="1.48016"/>
</g>
<defs>
<linearGradient id="paint0_linear_3_474" x1="1521.13" y1="575.778" x2="-35.2604" y2="651.857" gradientUnits="userSpaceOnUse">
<stop stop-color="#6CFFC1"/>
<stop offset="0.88" stop-color="#005544"/>
<stop offset="1" stop-color="#003322"/>
</linearGradient>
</defs>
</svg>
