<svg width="52" height="54" viewBox="0 0 52 54" fill="none" xmlns="http://www.w3.org/2000/svg">
<path fill-rule="evenodd" clip-rule="evenodd" d="M25.825 20.2109C31.0381 20.2109 35.9579 22.6177 39.1326 26.7233C42.3079 30.8318 43.3795 36.1747 42.0314 41.1777C40.6832 46.1809 37.0719 50.2754 32.2553 52.26C27.4384 54.2449 21.9685 53.8881 17.4511 51.3002C12.9363 48.7122 9.8896 44.1847 9.20517 39.0515C8.52396 33.9153 10.2854 28.7593 13.9708 25.0952C17.1089 21.9636 21.3755 20.2081 25.825 20.2109ZM25.8254 0.535156L28.3051 6.63134L34.7979 7.01359L29.7273 11.2438L31.3719 17.5013L25.7569 14.0186L20.2759 17.5013L21.8749 11.1163L16.847 7.01641L23.4511 6.55206L25.8254 0.535156ZM6.26155 9.49655L7.83777 13.3757L11.9678 13.6192L8.74132 16.3062L9.78452 20.2845L6.21317 18.0674L2.73018 20.2845L3.74486 16.2241L0.546875 13.6191L4.7453 13.3247L6.26155 9.49655ZM45.3899 9.49655L46.9661 13.3757L51.0962 13.6192L47.8697 16.3062L48.9129 20.2845L45.3415 18.0674L41.8585 20.2845L42.8761 16.2269L39.6781 13.622L43.8765 13.3275L45.3899 9.49655ZM37.3065 46.4337C34.3137 43.3134 30.1637 41.5494 25.8259 41.5551C23.2664 41.5551 20.9576 40.0204 19.98 37.6703C18.9995 35.323 19.5411 32.6189 21.351 30.821C23.1638 29.023 25.8857 28.485 28.2515 29.4562C30.6143 30.4303 32.1563 32.7237 32.1563 35.2664C32.1563 38.7406 29.3232 41.5551 25.8259 41.5551C21.4878 41.5494 17.3377 43.3134 14.3453 46.4337C11.8912 43.523 10.6485 39.7911 10.8709 36.0023C11.096 32.2109 12.7692 28.6515 15.5482 26.0471C18.33 23.4421 22.0069 21.9896 25.8292 21.9896C29.6485 21.9896 33.325 23.4421 36.1073 26.0471C38.8863 28.6521 40.5594 32.2112 40.7846 36.0023C41.0069 39.7908 39.7642 43.5227 37.3101 46.4337H37.3065ZM37.124 46.6489C37.144 46.6234 37.1696 46.5951 37.1896 46.5725C37.1668 46.5979 37.144 46.6263 37.124 46.6489Z" fill="white"/>
</svg>
